<svg id="visual" viewBox="0 0 900 600" width="900" height="600" xmlns="http://www.w3.org/2000/svg" xmlns:xlink="http://www.w3.org/1999/xlink" version="1.1"><rect x="0" y="0" width="900" height="600" fill="#240865"></rect><path d="M0 376L25 367.7C50 359.3 100 342.7 150 330.3C200 318 250 310 300 322.2C350 334.3 400 366.7 450 365.2C500 363.7 550 328.3 600 309.8C650 291.3 700 289.7 750 291.7C800 293.7 850 299.3 875 302.2L900 305L900 601L875 601C850 601 800 601 750 601C700 601 650 601 600 601C550 601 500 601 450 601C400 601 350 601 300 601C250 601 200 601 150 601C100 601 50 601 25 601L0 601Z" fill="#391885"></path><path d="M0 345L25 351.7C50 358.3 100 371.7 150 383.3C200 395 250 405 300 413.7C350 422.3 400 429.7 450 418.3C500 407 550 377 600 371.8C650 366.7 700 386.3 750 396.8C800 407.3 850 408.7 875 409.3L900 410L900 601L875 601C850 601 800 601 750 601C700 601 650 601 600 601C550 601 500 601 450 601C400 601 350 601 300 601C250 601 200 601 150 601C100 601 50 601 25 601L0 601Z" fill="#2d0f70"></path><path d="M0 438L25 438.5C50 439 100 440 150 443.8C200 447.7 250 454.3 300 457.8C350 461.3 400 461.7 450 461C500 460.3 550 458.7 600 456.7C650 454.7 700 452.3 750 440C800 427.7 850 405.3 875 394.2L900 383L900 601L875 601C850 601 800 601 750 601C700 601 650 601 600 601C550 601 500 601 450 601C400 601 350 601 300 601C250 601 200 601 150 601C100 601 50 601 25 601L0 601Z" fill="#21075c"></path><path d="M0 438L25 440.8C50 443.7 100 449.3 150 449.5C200 449.7 250 444.3 300 446.5C350 448.7 400 458.3 450 461.2C500 464 550 460 600 459C650 458 700 460 750 456.5C800 453 850 444 875 439.5L900 435L900 601L875 601C850 601 800 601 750 601C700 601 650 601 600 601C550 601 500 601 450 601C400 601 350 601 300 601C250 601 200 601 150 601C100 601 50 601 25 601L0 601Z" fill="#19054e"></path><path d="M0 537L25 529.7C50 522.3 100 507.7 150 503.7C200 499.7 250 506.3 300 510.8C350 515.3 400 517.7 450 513.3C500 509 550 498 600 500.8C650 503.7 700 520.3 750 527.3C800 534.3 850 531.7 875 530.3L900 529L900 601L875 601C850 601 800 601 750 601C700 601 650 601 600 601C550 601 500 601 450 601C400 601 350 601 300 601C250 601 200 601 150 601C100 601 50 601 25 601L0 601Z" fill="#160746"></path><path d="M0 568L25 565.8C50 563.7 100 559.3 150 559.5C200 559.7 250 564.3 300 566.2C350 568 400 567 450 564.7C500 562.3 550 558.7 600 559.5C650 560.3 700 565.7 750 563.7C800 561.7 850 552.3 875 547.7L900 543L900 601L875 601C850 601 800 601 750 601C700 601 650 601 600 601C550 601 500 601 450 601C400 601 350 601 300 601C250 601 200 601 150 601C100 601 50 601 25 601L0 601Z" fill="#14083e"></path></svg>