<svg id="visual" viewBox="0 0 900 600" width="900" height="600" xmlns="http://www.w3.org/2000/svg" xmlns:xlink="http://www.w3.org/1999/xlink" version="1.1"><rect x="0" y="0" width="900" height="600" fill="#ffc800"></rect><defs><linearGradient id="grad1_0" x1="33.3%" y1="100%" x2="100%" y2="0%"><stop offset="20%" stop-color="#ffc800" stop-opacity="1"></stop><stop offset="80%" stop-color="#ffc800" stop-opacity="1"></stop></linearGradient></defs><defs><linearGradient id="grad2_0" x1="0%" y1="100%" x2="66.7%" y2="0%"><stop offset="20%" stop-color="#ffc800" stop-opacity="1"></stop><stop offset="80%" stop-color="#ffc800" stop-opacity="1"></stop></linearGradient></defs><g transform="translate(900, 600)"><path d="M-243.4 0C-238.2 -44.7 -233.1 -89.3 -210.8 -121.7C-188.5 -154 -149 -174 -111 -192.3C-73 -210.5 -36.5 -226.9 0 -243.4L0 0Z" fill="#faecba"></path></g><g transform="translate(0, 0)"><path d="M243.4 0C238 44.3 232.7 88.7 210.8 121.7C188.9 154.7 150.4 176.5 112.5 194.9C74.6 213.3 37.3 228.3 0 243.4L0 0Z" fill="#faecba"></path></g></svg>