<?xml version="1.0" encoding="UTF-8"?>
<svg id="Layer_2" data-name="Layer 2" xmlns="http://www.w3.org/2000/svg" viewBox="0 0 708.67 889.65">
  <defs>
    <style>
      .cls-1 {
        fill: #f57a59;
      }

      .cls-2 {
        fill: #f97c00;
      }

      .cls-3 {
        fill: #ebdeff;
      }

      .cls-4 {
        fill: #ea1859;
      }

      .cls-5 {
        fill: #fff;
      }

      .cls-6 {
        fill: #ffdab6;
      }

      .cls-7 {
        fill: #ea6e6e;
      }

      .cls-8 {
        fill: #ffb999;
      }

      .cls-9 {
        fill: #fe4a65;
      }

      .cls-10 {
        fill: #f99;
      }

      .cls-11 {
        fill: #ffa744;
      }

      .cls-12 {
        fill: #fce6ed;
      }

      .cls-13 {
        fill: #effdfd;
      }

      .cls-14 {
        fill: #ff859c;
      }

      .cls-15 {
        fill: #7f1212;
      }

      .cls-16 {
        fill: #a02727;
      }

      .cls-17 {
        fill: #84ecff;
      }

      .cls-18 {
        fill: #9cf7c9;
      }

      .cls-19 {
        fill: #b20040;
      }

      .cls-20 {
        fill: #c64f4f;
      }

      .cls-21 {
        fill: #acd9ea;
      }

      .cls-22 {
        fill: #c6a2f9;
      }

      .cls-23, .cls-24, .cls-25 {
        fill: #e0f3fc;
      }

      .cls-26 {
        fill: #1e3c51;
      }

      .cls-27, .cls-28, .cls-29 {
        fill: #232144;
      }

      .cls-30 {
        fill: #9671c3;
      }

      .cls-31, .cls-32 {
        fill: #29afd3;
      }

      .cls-33 {
        fill: #29fc97;
      }

      .cls-34 {
        fill: #2e4c64;
      }

      .cls-35, .cls-36 {
        fill: #77b7b6;
      }

      .cls-28 {
        opacity: .34;
      }

      .cls-28, .cls-36, .cls-32, .cls-29, .cls-24, .cls-25 {
        isolation: isolate;
      }

      .cls-36, .cls-37 {
        opacity: .3;
      }

      .cls-32 {
        opacity: .5;
      }

      .cls-29 {
        opacity: .54;
      }

      .cls-24 {
        opacity: .51;
      }

      .cls-25, .cls-38 {
        opacity: .58;
      }
    </style>
  </defs>
  <g id="Layer_2-2" data-name="Layer 2">
    <g id="Layer_1-2" data-name="Layer 1-2">
      <g>
        <g class="cls-37">
          <path class="cls-35" d="M189.2,853.19c35.45-4.47,68.35-16.72,104.35-20.61,44.02-4.76,79.76,21.86,117.73,32-5.57,7.72-42.51,13.56-56.12,16.29-20.73,4.18-44.6,8.3-66.98,8.77-33.62,.7-56.3-13.7-81.99-24.97l3.63,1.77"/>
        </g>
        <path class="cls-27" d="M48.18,211.9c-5.98,0-10.84-4.86-10.84-10.84s4.86-10.84,10.84-10.84,10.84,4.86,10.84,10.84-4.86,10.84-10.84,10.84Zm0-19.74c-4.91,0-8.9,3.99-8.9,8.9s3.99,8.9,8.9,8.9,8.9-3.99,8.9-8.9-3.99-8.9-8.9-8.9Z"/>
        <path class="cls-36" d="M109.85,147.78l76.59,38.03,28.57-57.08-79.35-37.51s-9.7,38.03-25.81,56.56Z"/>
        <polygon class="cls-5" points="144.05 106.03 137.43 121.07 154.71 129.31 163.45 114.45 144.05 106.03"/>
        <path class="cls-15" d="M223.95,231.75c-5.26-5.26,4.18,14.63,10.25,18.93s14.02,5.72,21.31,4.21v-23.98s-31.27,1.16-31.56,.84Z"/>
        <path class="cls-27" d="M249.82,256.55c-5.86,0-11.65-1.74-16.25-4.99-6.49-4.59-10.59-12.18-10.71-19.8,0-.6,.47-1.1,1.07-1.11,.6-.03,1.1,.47,1.11,1.07,.11,6.94,3.86,13.86,9.79,18.06,5.66,4.01,13.3,5.51,20.46,4.03,.59-.12,1.16,.26,1.29,.85,.12,.59-.26,1.17-.85,1.29-1.95,.4-3.94,.6-5.92,.6Z"/>
        <path class="cls-34" d="M347.29,835.01l.7,27.52c-.41,3.11,.67,6.18,2.87,8.39h0c1.1,1.1,2.41,1.92,3.86,2.44,17.07,5.86,27.87,9.87,45.84,11.96l6.01,.7,5.81,.32,6.18-.46c8.91-1.07,17.62-3.51,25.84-7.23h0c2.58-5.63,1.31-12.31-3.22-16.52-9.87-9.17-29.41-24.42-57.11-32.23l-8.54-13.24c5.14,2.5,8.54,6.71,8.54,11.5,0,7.64-8.59,13.85-19.22,13.85s-19.22-6.21-19.22-13.85c0-4.15,2.53-7.87,6.56-10.42"/>
        <path class="cls-26" d="M445.51,872.87c0,2.03-.44,4.09-1.34,6.04-8.19,3.72-16.93,6.13-25.84,7.23l-6.18,.46-5.84-.32-6.01-.7c-17.94-2.09-28.74-6.07-45.82-11.96-1.45-.49-2.79-1.34-3.86-2.41-2.21-2.21-3.28-5.31-2.87-8.39l-.2-8.51c9.73,8.77,27.64,15.21,48.4,16.35,17.94,.99,34.2-2.24,45.15-8.1,2.87,2.76,4.41,6.53,4.41,10.34v-.03Z"/>
        <path class="cls-34" d="M228.83,814.92c-5.14,2.24-8.54,6.07-8.54,10.42,0,6.91,8.59,12.51,19.22,12.51s19.22-5.6,19.22-12.51c0-3.75-2.53-7.11-6.56-9.41l6.18,12.63,2.47,27.73c.35,3.83-.38,7.67-2.09,11.09l-.38,.73c-15.45,5.46-31.44,9.17-47.73,11.06l-15.65,.49c-7.75-.96-15.33-3.05-22.44-6.27h0c-2.24-4.91-1.13-10.68,2.82-14.37,8.33-7.75,24.59-20.44,47.56-27.41l5.95-16.67-.03-.03Z"/>
        <path class="cls-26" d="M239.8,841.52c-5.69,0-9.99-1.42-10.25-1.51-1.01-.34-1.55-1.44-1.21-2.45,.34-1.01,1.44-1.55,2.44-1.21h0c.09,.03,8.87,2.91,17.31,0,1.01-.35,2.11,.19,2.45,1.2,.35,1.01-.19,2.11-1.2,2.45-3.31,1.14-6.61,1.52-9.55,1.52Z"/>
        <path class="cls-26" d="M259.43,866.37l-.93,1.89c-15.45,5.46-31.07,9.35-47.33,11.24l-6.56,.84-9.73-.23c-7.75-.96-15.1-3.37-22.21-6.56-.78-1.68-1.16-3.48-1.16-5.26,0-3.4,1.36-6.71,3.95-9.12,.15-.12,.26-.23,.41-.38,13.24,7.03,32.87,10.1,54.15,7.37,11.44-1.45,22.01-4.41,31.04-8.42h0c.26,2.96-.29,5.98-1.63,8.62Z"/>
        <rect class="cls-25" x="404.31" y="438.41" width="165.87" height="123.51" rx="7.96" ry="7.96"/>
        <g>
          <path class="cls-13" d="M467,438.93l-48.43,122.99,44.63,.32,40.42-123.19h-.06s-35.36-.64-36.52-.15l-.03,.03Z"/>
          <path class="cls-5" d="M510.35,438.93l-41.58,122.99h11l41.4-123.19h-3.54s-6.1-.32-7.26,.17l-.03,.03Z"/>
        </g>
        <polygon class="cls-5" points="467.26 489.83 450.13 499.7 433 509.6 433 489.83 433 470.03 450.13 479.93 467.26 489.83"/>
        <g>
          <path class="cls-28" d="M514.29,193.93c-8.22,0-14.91-6.69-14.91-14.91s6.69-14.91,14.91-14.91,14.91,6.69,14.91,14.91-6.69,14.91-14.91,14.91Zm0-27.87c-7.15,0-12.96,5.82-12.96,12.96s5.82,12.96,12.96,12.96,12.96-5.82,12.96-12.96-5.82-12.96-12.96-12.96Z"/>
          <path class="cls-29" d="M514.29,199.85c-11.49,0-20.83-9.35-20.83-20.83s9.35-20.83,20.83-20.83,20.83,9.35,20.83,20.83-9.35,20.83-20.83,20.83Zm0-39.72c-10.41,0-18.89,8.47-18.89,18.89s8.47,18.89,18.89,18.89,18.89-8.47,18.89-18.89-8.47-18.89-18.89-18.89Z"/>
        </g>
        <rect class="cls-5" x="499.36" y="127.05" width="64.02" height="55.95" rx="3.95" ry="3.95" transform="translate(-22.14 152.08) rotate(-15.96)"/>
        <path class="cls-8" d="M89.85,292.43c-3.6-9.7-12.89-19.71-12.89-19.71l3.19,3.77,3.25-33.68-29.41-40.73-2.03-2.26c-2.03-2.26-2.67-1.54-2.67-1.54l-2.73,.55c-2.44,1.77-1.63,5.49-1.63,5.49l1.71,4.21,14.14,28.95-5.34-1.77c-7.43,2.09-8.88,9.87-8.88,9.87v14.55s21.11,16.75,21.86,35.36l13.53,5.86,7.87-8.88,.03-.03Z"/>
        <path class="cls-1" d="M70.36,296.61c-1.54,0-2.82-1.21-2.9-2.76-.88-18.31-19.45-31.2-19.64-31.33-.78-.53-1.26-1.42-1.27-2.36l-.17-14.55c0-.12,0-.24,.02-.36,.03-.3,.91-7.43,7.81-10.13,1.5-.59,3.18,.15,3.76,1.65,.58,1.49-.15,3.18-1.65,3.76-3.24,1.27-4,4.51-4.13,5.25l.15,12.85c4.6,3.48,20.04,16.49,20.92,34.95,.08,1.6-1.16,2.96-2.76,3.04-.05,0-.09,0-.14,0Z"/>
        <path class="cls-9" d="M487.47,271.87c-10.92,28.37-62.8,82.92-62.8,82.92l.75,.52c-44.63-30.4-102.58-51.04-118.37-56.38-2.67-.9-5.49-1.36-8.3-1.36h-28.13l-28.71,10.28-37.08,30.69-36.96,24.59-76.65-72.44c-11.58,9.7-28.45,2.55-29.09,2.29l77.93,114.13h11.61c20.32,0,40.3-5.43,57.86-15.74l4.56-2.7v-10.02l5.84,77.61,10.34-9.7-18.73,18.76v20.21l9.38,8.57-12.19,10.68,3.46,22.62,3.89,1.57c22.33,8.97,45.96,13.44,69.57,13.44,24.97,0,49.94-5.02,73.34-15.01l10.02-18.76-1.71-8.94-6.04,3.48-.35-.81-2.26-9.9-7.55-6.91-1.16-1.68-3.34-54.61c0-.96,.17-1.89,.49-2.76l7.98-21.8c.32-.9,.49-1.83,.49-2.76v-24.3l86.43,22.24c5.2,1.34,10.63-1.07,13.09-5.84l57.14-109.49c-13.09-.49-24.74-12.6-24.74-12.6v-.09Z"/>
        <path class="cls-14" d="M193.44,352.24c-.97,0-1.91-.48-2.46-1.36-.85-1.36-.44-3.15,.92-4l12.2-7.65,25.54-21.44c1.23-1.03,3.06-.87,4.09,.36,1.03,1.23,.87,3.06-.36,4.09l-25.7,21.57c-.1,.09-.21,.17-.32,.24l-12.37,7.75c-.48,.3-1.01,.44-1.54,.44Z"/>
        <path class="cls-8" d="M490.95,275.5v-56.12l18.79-42.53,2.24-2.35s4.41-3.63,7,0,.87,8.36,.87,8.36l-1.57,3.02-14.4,31.68,2.64-5.49h12.46l4.04,3.22,8.42,12.28-1.95,16.17-11.64,16.49-11.29,23.87"/>
        <path class="cls-12" d="M493.16,254.04c-1.6,0-2.9-1.3-2.9-2.9v-24.74c0-1.6,1.3-2.9,2.9-2.9s2.9,1.3,2.9,2.9v24.74c0,1.6-1.3,2.9-2.9,2.9Z"/>
        <path class="cls-1" d="M505.52,282.56c-.42,0-.84-.09-1.25-.28-1.45-.69-2.06-2.42-1.37-3.87l9.7-20.35c.07-.16,.16-.31,.26-.45l11.64-16.17c.94-1.3,2.75-1.6,4.05-.66,1.3,.94,1.6,2.75,.66,4.05l-11.49,15.96-9.58,20.12c-.5,1.04-1.54,1.66-2.62,1.66Z"/>
        <path class="cls-8" d="M284.49,311.24h0c-7.4,0-15.07-6.3-13.41-13.41v-35.86h26.83l.38,36.21c0,10.19-.38,13.07-13.79,13.07Z"/>
        <path class="cls-1" d="M270.32,287.87s13.21,8.86,27.87,0v-17.59h-27.76s-.73,17.59-.12,17.59Z"/>
        <path class="cls-34" d="M354.69,847.62l-8.74-17.71,4.12-7.03,5.81-11.64,13.09-1.22,11.41,12.6,11.41,18.44s-10.92,8.97-12.14,9.2"/>
        <path class="cls-34" d="M228.83,814.92c-5.14,2.24-8.54,6.07-8.54,10.42,0,6.91,8.59,12.51,19.22,12.51s19.22-5.6,19.22-12.51c0-3.75-4.36-9.12-9.99-11.29l-15.45-.61-4.44,1.48h-.03Z"/>
        <path class="cls-8" d="M350.46,808.19l5.11,18.58c.58,2.15,2.41,3.77,4.65,4.01,3.54,.38,8.97,.12,13.21-3.6,1.36-1.19,2-3.05,1.77-4.85l-2.29-16.64"/>
        <path class="cls-1" d="M347.06,793.18l5.11,18.58c.58,2.15,2.41,3.77,4.65,4.01,3.54,.38,8.97,.12,13.21-3.6,1.36-1.19,2-3.05,1.77-4.85l-2.29-16.64"/>
        <path class="cls-8" d="M233.27,809.23v14.69s7.78,5.49,15.53,0v-15.62"/>
        <path class="cls-1" d="M233.27,799.54v14.69s7.78,5.49,15.53,0v-15.62"/>
        <path class="cls-14" d="M155.84,360.02c-.73,0-1.45-.27-2.02-.81l-54.29-52.38c-1.15-1.11-1.19-2.95-.07-4.1,1.11-1.15,2.95-1.19,4.1-.07l54.29,52.38c1.15,1.11,1.19,2.95,.07,4.1-.57,.59-1.33,.89-2.09,.89Z"/>
        <path class="cls-17" d="M383.64,800.49c-25.2,16-40.27,4.85-40.27,4.85l-6.79-48.52-19.89-75.6-25.7-85.36-32.02,209.74c-33.45,12.14-43.64-6.53-43.64-6.53l2.44-268.68c44.19,16.35,96.48,16.55,140.06-1.6l25.81,271.7Z"/>
        <path class="cls-32" d="M256.88,543.48c-6.42,59.93-7.64,188.9-14.23,266.21-21.02,.49-27.32-10.63-27.32-10.63l2.53-269.23c19.28,7.14,18.81,13.12,39.02,13.68v-.03Z"/>
        <path class="cls-31" d="M278.25,663.1c-.19,0-.37-.01-.56-.04-2.11-.31-3.57-2.27-3.26-4.38l7.75-53.07c.31-2.11,2.26-3.57,4.38-3.26,2.11,.31,3.57,2.27,3.26,4.38l-7.75,53.07c-.28,1.92-1.93,3.3-3.82,3.3Z"/>
        <path class="cls-31" d="M336.43,750.21c-1.7,0-3.26-1.13-3.73-2.86l-16.17-59.93c-.56-2.06,.66-4.18,2.72-4.73,2.05-.55,4.18,.66,4.73,2.72l16.17,59.93c.56,2.06-.66,4.18-2.72,4.73-.34,.09-.68,.13-1.01,.13Z"/>
        <path class="cls-31" d="M261.99,767.1c-.19,0-.37-.01-.56-.04-2.11-.31-3.57-2.27-3.26-4.38l7.75-53.07c.31-2.11,2.27-3.57,4.38-3.26,2.11,.31,3.57,2.27,3.26,4.38l-7.75,53.07c-.28,1.92-1.93,3.3-3.82,3.3Z"/>
        <path class="cls-31" d="M287.92,550.3c-28.86,0-51.36-6.52-60.46-9.64-2.02-.69-3.09-2.89-2.4-4.91,.69-2.02,2.89-3.09,4.9-2.4,15.11,5.18,68.83,20.15,125.86-4.59,1.96-.85,4.23,.05,5.08,2s-.05,4.23-2.01,5.08c-25.21,10.94-49.81,14.45-70.98,14.45Z"/>
        <path class="cls-31" d="M268.9,555.45c-.13,0-.26,0-.39-.02-7.79-.79-15.62-2.05-23.27-3.76-2.08-.46-3.39-2.53-2.93-4.61,.46-2.08,2.53-3.39,4.61-2.93,7.35,1.64,14.88,2.86,22.37,3.61,2.12,.21,3.67,2.11,3.45,4.23-.2,1.99-1.88,3.47-3.84,3.47Z"/>
        <path class="cls-4" d="M134.68,397.99c-.93,0-1.84-.44-2.4-1.26l-60.8-88.9c-.91-1.32-.57-3.13,.76-4.04s3.13-.57,4.04,.76l60.8,88.9c.91,1.32,.57,3.13-.76,4.04-.5,.34-1.07,.51-1.64,.51Z"/>
        <path class="cls-14" d="M437.47,348.52c-.67,0-1.34-.23-1.88-.69-1.22-1.04-1.36-2.87-.32-4.09l22.44-26.29,9.17-11.6c.99-1.26,2.82-1.47,4.08-.48,1.26,.99,1.47,2.82,.48,4.08l-9.2,11.64s-.05,.06-.07,.08l-22.47,26.33c-.57,.67-1.39,1.02-2.21,1.02Z"/>
        <path class="cls-14" d="M408.75,351.28c-.54,0-1.09-.15-1.58-.47-31.83-20.68-84.46-39.52-84.98-39.71-1.51-.54-2.3-2.2-1.76-3.71s2.2-2.3,3.71-1.76c.53,.19,53.8,19.26,86.2,40.31,1.34,.87,1.73,2.67,.85,4.02-.56,.86-1.49,1.32-2.44,1.32Z"/>
        <path class="cls-12" d="M366.13,328.75c-.4,0-.8-.08-1.19-.26-6.68-3-13.55-5.95-19.86-8.53-1.48-.61-2.2-2.3-1.59-3.79,.61-1.48,2.3-2.2,3.79-1.59,6.46,2.64,13.2,5.53,20.04,8.6,1.46,.66,2.12,2.38,1.46,3.84-.48,1.08-1.54,1.72-2.65,1.72Z"/>
        <path class="cls-4" d="M440.4,400.14c-.24,0-.48-.03-.72-.09l-82.8-20.99c-1.55-.39-2.5-1.97-2.1-3.53,.39-1.55,1.97-2.49,3.53-2.1l82.8,20.99c1.55,.39,2.5,1.97,2.1,3.53-.33,1.31-1.52,2.19-2.81,2.19Z"/>
        <path class="cls-4" d="M455.09,390.56c-.46,0-.93-.11-1.36-.34-1.42-.75-1.95-2.51-1.2-3.93l38.79-72.76c.75-1.42,2.51-1.95,3.93-1.2,1.42,.75,1.95,2.51,1.2,3.93l-38.79,72.76c-.52,.98-1.53,1.54-2.56,1.54Z"/>
        <path class="cls-4" d="M211.76,384.55c-9.81,5.92-20.29,10.51-31.36,13.53-11.06,3.02-22.04,4.96-32.95,4.01-3.72-.32-3.69,5.46,0,5.81,11.38,.99,23.55-1.22,34.49-4.21,11.5-3.14,22.53-7.96,32.72-14.11,3.19-1.92,.29-6.94-2.93-4.99h0l.03-.03Z"/>
        <path class="cls-4" d="M212.22,380.17c-15.24,9.2-32.34,15.16-50.05,17.07-3.66,.41-3.72,6.21,0,5.81,18.76-2.03,36.82-8.1,52.99-17.88,3.19-1.92,.29-6.94-2.93-4.99h0Z"/>
        <path class="cls-4" d="M212.98,373.72c-11.15,7.14-23.29,12.43-36.09,15.71-3.6,.93-2.09,6.5,1.54,5.57,13.27-3.4,25.96-8.91,37.48-16.29,3.14-2,.23-7.03-2.93-4.99h0Z"/>
        <path class="cls-4" d="M213.62,368.23c-11.15,7.14-23.29,12.43-36.09,15.71-3.6,.93-2.09,6.5,1.54,5.57,13.27-3.4,25.96-8.91,37.48-16.29,3.14-2,.23-7.03-2.93-4.99h0Z"/>
        <path class="cls-5" d="M366.13,664.77c-2.47,0-4.58-1.88-4.81-4.39l-4.24-45.87c-.25-2.66,1.71-5.01,4.37-5.26,2.67-.24,5.01,1.71,5.26,4.37l4.24,45.87c.25,2.66-1.71,5.01-4.37,5.26-.15,.01-.3,.02-.45,.02Z"/>
        <path class="cls-5" d="M374.87,758.09c-2.47,0-4.57-1.88-4.81-4.39l-4.27-45.87c-.25-2.66,1.71-5.01,4.37-5.26,2.66-.23,5.01,1.71,5.26,4.37l4.27,45.87c.25,2.66-1.71,5.01-4.37,5.26-.15,.01-.3,.02-.45,.02Z"/>
        <path class="cls-4" d="M348.07,454.41l1.89,30.02,1.16,1.71,7.55,6.91,2.26,9.87,.35,.81,6.04-3.48,1.71,8.94-10.02,18.76c-23.4,9.99-48.37,15.01-73.34,15.01-23.6,0-47.24-4.47-69.57-13.44l-3.89-1.57-3.46-22.62,12.19-10.68-9.38-8.57-.17-20.38,8.48-8.51s-2.18-31.27-2.9-44.13c30.31,28.13,131.12,41.32,131.12,41.32l-.03,.03Z"/>
        <path class="cls-20" d="M235.6,201.9c1.68,4.04,3.08,8.22,4.21,12.46,1.34,5.11,1.89,11.47-2.21,14.78-.55,.44-1.16,.81-1.86,.9s-3.02,1.6-3.66,1.28c-4.94-2.41-4.5-10.6-7.96-14.87-1.42-1.74-3.22-3.14-4.56-4.94-1.71-2.29-1.89-4.88-2.58-7.66-2.79-11.03-4.62-23.11-1.22-33.97s12.14-20.56,23.34-22.62c.93-.17,1.92-.29,2.76-.73,2.35-1.16,3.31-3.57,4.33-5.98,2.12-5.08,9.81-10.86,15.24-11.93s4.85-.55,10.34-.49c3.66,.03,10.86,3.08,13.27,6.04,1.77,2.18-2.38-.7,.44-.7,18.7-.06,30.22,10.16,35.02,21.31,1.19,2.79,2.03,5.81,1.92,8.86-.17,4.38-.58,9.93-2.03,14.08,1.42,3.66,2.41,7.06,3.95,11.09,1.54,4.04-.12,8.25-3.05,11.41-1.54,1.63-1.6,3.28-3.75,3.98-26.42,8.65-55.86,9.49-79.41,24.3"/>
        <path class="cls-16" d="M268.75,214.7c-10.51,2.79-20.67,6.39-29.93,12.14-.26,.35,0,1.28-.35,1.57-.55,.44-3.11,2.44-3.8,2.5-.73,.09-1.71-.64-2.38-.93-4.94-2.41-4.5-10.6-7.96-14.87-1.42-1.74-7.98,2.18-9.32,.38-1.71-2.29-1.89-6.94-1.83-9.81,.38-13.47-.64-26.28,2.79-37.11,3.34-10.63,12.19-18.49,23.02-20.85,2.85,2.26,4.82,3.34,6.45,6.62,4.36,8.74,1.97,19.13,2.93,28.83,1.28,12.92,9.23,24.88,20.35,31.56l.03-.03Z"/>
        <path class="cls-8" d="M318.14,197.43c6.1-.93,11.79,3.28,12.72,9.38,.87,5.84-2.93,11.32-8.62,12.57"/>
        <ellipse class="cls-8" cx="222.71" cy="223.35" rx="11.24" ry="12.86"/>
        <ellipse class="cls-1" cx="225.26" cy="223.01" rx="8.74" ry="9.99"/>
        <path class="cls-8" d="M315.85,188.98l6.1,30.02c1.77,8.71,2.24,17.65,.87,26.42-3.05,19.98-13.53,33.42-32.78,37.34h0c-11,2.24-21.86-.99-31.07-6.85-13.41-8.51-22.44-22.47-25.61-38.03l-1.34-6.59s8.68-.15,9-9.2c.32-9.06-6.21-20.38-6.21-20.38l2.82,5.02,9.47-2.58,5.63-4.94,3.83-5.57,7.11,3.4,9.96-.61,7.26-4.7,5.89,6.21,9.7,2.26,8.71-3.16,10.66-8.07v.03Z"/>
        <path class="cls-1" d="M308.94,274.48c-4.91,4.18-11,7.08-18.41,8.59-2.38,.49-4.76,.7-7.11,.7-8.51,0-16.75-2.96-23.95-7.55-13.38-8.51-22.44-22.47-25.58-38.03l-1.34-6.59s7.49-.15,8.8-7.43c5.78,26.68,13.21,36.96,23.66,44.63,10.92,8.01,22.7,7.87,31.18,7.87,2.35,0,4.73-.23,7.14-.73,1.97-.41,3.86-.9,5.63-1.51l-.03,.06Z"/>
        <path class="cls-27" d="M300.69,200.4c-.45,0-.87-.28-1.02-.72-.2-.57,.09-1.19,.66-1.39,.05-.02,5.34-1.96,10.57-6.96,6.97-6.67,10.55-15.36,10.63-25.82,0-.6,.47-1.06,1.1-1.08,.6,0,1.08,.5,1.08,1.1-.21,26.5-22.42,34.73-22.64,34.81-.12,.04-.24,.06-.37,.06Z"/>
        <path class="cls-27" d="M214.52,215.36c-.47,0-.9-.31-1.04-.78-1.34-4.53-3.24-14.72-.88-32.1,.08-.6,.63-1.02,1.23-.93,.6,.08,1.01,.63,.93,1.23-2.31,16.98-.49,26.83,.81,31.19,.17,.58-.16,1.18-.73,1.35-.1,.03-.21,.04-.31,.04Z"/>
        <path class="cls-27" d="M222.71,237.31c-6.8,0-12.33-6.26-12.33-13.95s5.53-13.95,12.33-13.95,12.32,6.26,12.32,13.95-5.53,13.95-12.32,13.95Zm0-25.72c-5.6,0-10.15,5.28-10.15,11.77s4.55,11.77,10.15,11.77,10.15-5.28,10.15-11.77-4.55-11.77-10.15-11.77Z"/>
        <g>
          <path class="cls-27" d="M220.09,230.35c-.36,0-.7-.19-.88-.53-4.61-8.82,1.4-13.94,1.47-13.99,.42-.35,1.04-.29,1.39,.13,.35,.42,.29,1.04-.13,1.39-.21,.17-4.83,4.2-.98,11.56,.25,.48,.07,1.08-.42,1.33-.15,.08-.3,.11-.46,.11Z"/>
          <path class="cls-27" d="M224.42,226.55c-.33,0-.65-.16-.84-.46-1.77-2.83-4.87-2.71-5-2.7-.54,.04-1.01-.39-1.04-.93-.03-.54,.38-1.01,.92-1.04,.18,0,4.39-.22,6.79,3.63,.29,.46,.15,1.07-.31,1.36-.16,.1-.34,.15-.52,.15Z"/>
        </g>
        <path class="cls-27" d="M324.85,210.13c-.46,0-.85-.37-.86-.84h0c0-.11-.11-2.83-2.67-4.13-.42-.21-.59-.73-.37-1.15,.21-.42,.73-.59,1.15-.37,3.5,1.78,3.6,5.47,3.6,5.63,0,.47-.37,.86-.84,.87h-.02Z"/>
        <path class="cls-27" d="M322.23,220.47c-.5,0-.95-.35-1.06-.86-.13-.59,.24-1.17,.83-1.3,5.14-1.13,8.56-6.11,7.78-11.35-.84-5.5-5.98-9.3-11.48-8.46-.59,.09-1.15-.32-1.24-.91-.09-.59,.32-1.15,.91-1.24,3.23-.5,6.47,.31,9.11,2.25,2.63,1.94,4.36,4.8,4.85,8.04,.95,6.37-3.21,12.43-9.47,13.8-.08,.02-.16,.03-.23,.03Z"/>
        <path class="cls-27" d="M323.6,199.07c-.11,0-.23-.02-.34-.05-.57-.19-.88-.8-.69-1.38,3.43-10.4-2.89-17.38-3.16-17.67-.41-.44-.38-1.13,.06-1.54,.44-.41,1.13-.39,1.54,.05,.31,.33,7.48,8.18,3.64,19.84-.15,.46-.58,.75-1.03,.75Z"/>
        <path class="cls-27" d="M270.73,302.86c-.6,0-1.09-.49-1.09-1.09v-20.29c0-.6,.49-1.09,1.09-1.09s1.09,.49,1.09,1.09v20.29c0,.6-.49,1.09-1.09,1.09Z"/>
        <path class="cls-27" d="M286.73,312.75c-5.91,0-11.63-2.73-15.06-7.25-.33-.43-.24-1.04,.19-1.36,.43-.32,1.04-.24,1.36,.19,3.15,4.15,8.72,6.68,14.19,6.47,4.12-.16,7.52-1.87,9.33-4.69,.29-.45,.89-.58,1.34-.29,.45,.29,.58,.89,.29,1.34-2.16,3.36-6.13,5.39-10.89,5.58-.25,.01-.5,.02-.76,.02Z"/>
        <path class="cls-27" d="M298.28,302.86c-.6,0-1.09-.49-1.09-1.09v-20.29c0-.6,.49-1.09,1.09-1.09s1.09,.49,1.09,1.09v20.29c0,.6-.49,1.09-1.09,1.09Z"/>
        <path class="cls-27" d="M434.74,363.52c-.23,0-.45-.07-.65-.22-11.4-8.5-54.26-38.15-127.24-62.73-2.6-.87-5.29-1.31-7.98-1.31h-.58c-.6,0-1.09-.49-1.09-1.09s.49-1.09,1.09-1.09h.58c2.93,0,5.85,.48,8.68,1.42,7.82,2.63,28.65,9.94,53.16,20.9,30.12,13.47,55.26,27.65,74.69,42.15,.48,.36,.58,1.04,.22,1.52-.21,.29-.54,.44-.87,.44Z"/>
        <path class="cls-27" d="M445.03,401.86c-1.05,0-2.12-.13-3.19-.41l-86.43-22.21c-.58-.15-.93-.74-.78-1.33,.15-.58,.74-.93,1.33-.78l86.43,22.21c4.74,1.22,9.61-.96,11.86-5.28l56.34-108.02c-10.38-1.11-19.43-8.7-22.6-11.66-4.98,11.84-16.76,28.94-35.06,50.88-14.19,17.01-27.22,30.74-27.35,30.88-.42,.44-1.1,.45-1.54,.04-.44-.41-.45-1.1-.04-1.54,.52-.54,51.86-54.72,62.57-82.56,.13-.35,.44-.6,.8-.68,.37-.07,.74,.04,1,.31,.11,.12,11.5,11.82,23.99,12.27,.37,.01,.71,.22,.9,.54s.2,.72,.02,1.05l-57.11,109.49c-2.21,4.26-6.52,6.79-11.14,6.79Z"/>
        <path class="cls-27" d="M350.11,488.42c-.57,0-1.05-.45-1.09-1.02l-3.43-56.3c0-1.12,.19-2.2,.56-3.2l7.98-21.8c.28-.76,.43-1.59,.43-2.38v-36.64c0-.6,.49-1.09,1.09-1.09s1.09,.49,1.09,1.09v36.64c0,1.05-.19,2.13-.56,3.13l-7.98,21.8c-.28,.76-.43,1.59-.43,2.38l3.42,56.23c.04,.6-.42,1.12-1.02,1.15-.02,0-.04,0-.07,0Z"/>
        <path class="cls-27" d="M190.3,349.96c-.35,0-.7-.17-.91-.49-.33-.5-.2-1.18,.3-1.51l14.59-9.69,37.03-30.65c.1-.08,.21-.14,.33-.19l28.71-10.28c.56-.2,1.19,.09,1.39,.66,.2,.57-.09,1.19-.66,1.39l-28.53,10.21-36.93,30.57s-.06,.05-.09,.07l-14.63,9.73c-.19,.12-.39,.18-.6,.18Z"/>
        <path class="cls-27" d="M151.78,408.81h-11.61c-.36,0-.7-.18-.9-.47l-77.93-114.13c-.27-.4-.25-.93,.06-1.31,.31-.37,.83-.5,1.28-.3,.17,.07,16.83,7.21,27.96-2.1,.42-.35,1.05-.34,1.45,.04l75.99,71.82,16.9-11.25c.5-.33,1.18-.2,1.51,.3,.33,.5,.2,1.18-.3,1.51l-17.62,11.73c-.42,.28-.98,.23-1.35-.11l-75.93-71.76c-9.07,6.95-20.68,4.69-26.24,2.98l75.71,110.89h11.04c20.13,0,39.94-5.39,57.28-15.59l4.59-2.7c.52-.3,1.19-.13,1.49,.39,.3,.52,.13,1.19-.39,1.49l-4.59,2.7c-17.68,10.39-37.87,15.89-58.39,15.89Z"/>
        <path class="cls-27" d="M363.03,587.83c-.56,0-1.03-.42-1.08-.99l-4.94-52.61c-.06-.6,.38-1.13,.98-1.19,.59-.06,1.13,.38,1.19,.98l4.94,52.61c.06,.6-.38,1.13-.98,1.19-.03,0-.07,0-.1,0Z"/>
        <path class="cls-27" d="M371.5,678.74c-.56,0-1.03-.42-1.08-.99l-7.64-81.88c-.06-.6,.38-1.13,.98-1.19,.59-.05,1.13,.38,1.19,.98l7.64,81.88c.06,.6-.38,1.13-.98,1.19-.03,0-.07,0-.1,0Z"/>
        <path class="cls-27" d="M357.35,810.09c-9.31,0-14.58-3.77-14.95-4.04-.23-.17-.39-.43-.43-.72l-6.79-48.42-19.87-75.54-24.29-80.68-13.62,90.7c-.09,.59-.65,1-1.24,.92-.59-.09-1-.64-.92-1.24l14.34-95.49c.08-.5,.49-.89,1-.92,.52-.03,.97,.28,1.12,.77l25.7,85.36,19.9,75.64s.02,.08,.03,.13l6.73,48c1.08,.67,4.52,2.56,9.93,3.15,6.01,.65,15.75-.21,28.15-7.92l-10.88-112.94c-.06-.6,.38-1.13,.98-1.19,.6-.05,1.13,.38,1.19,.98l10.95,113.61c.04,.41-.15,.8-.5,1.02-10.77,6.84-19.73,8.85-26.52,8.85Z"/>
        <path class="cls-27" d="M238.06,810.61c-6.24,0-10.92-1.34-14.24-2.89-6.97-3.26-9.66-8.07-9.77-8.27-.09-.17-.14-.35-.13-.54l1.83-100.23c.01-.6,.48-1.08,1.11-1.07,.6,.01,1.08,.51,1.07,1.11l-1.82,99.92c1.33,2.14,11.6,16.61,41.57,6.01l16.07-103.65c.09-.59,.65-1,1.24-.91,.59,.09,1,.65,.91,1.24l-16.17,104.29c-.06,.39-.33,.72-.71,.86-8.37,3.03-15.31,4.13-20.96,4.13Z"/>
        <path class="cls-27" d="M216.58,691.46h0c-.6,0-1.09-.49-1.08-1.09l.09-15.85c0-.6,.49-1.08,1.09-1.08h0c.6,0,1.09,.49,1.08,1.09l-.09,15.85c0,.6-.49,1.08-1.09,1.08Z"/>
        <path class="cls-27" d="M216.58,668.37h0c-.6,0-1.08-.5-1.08-1.1l1.16-135.82c0-.6,.49-1.08,1.09-1.08h0c.6,0,1.08,.5,1.08,1.1l-1.16,135.82c0,.6-.49,1.08-1.09,1.08Z"/>
        <path class="cls-27" d="M295.7,587.8c-.21,0-.42-.07-.6-.21l-21.02-16.49c-.23-.18-.37-.47-.37-.77v-32.98c0-.54,.44-.97,.97-.97s.97,.44,.97,.97v32.51l20.65,16.2c.42,.33,.5,.94,.16,1.37-.19,.24-.48,.37-.77,.37Z"/>
        <path class="cls-27" d="M283.07,556.91c-.54,0-.97-.44-.97-.97v-3.72c0-.54,.44-.97,.97-.97s.97,.44,.97,.97v3.72c0,.54-.44,.97-.97,.97Z"/>
        <path class="cls-27" d="M283.07,566.75c-.54,0-.97-.44-.97-.97v-3.69c0-.54,.44-.97,.97-.97s.97,.44,.97,.97v3.69c0,.54-.44,.97-.97,.97Z"/>
        <path class="cls-27" d="M366.19,576.48c-10.3,0-17.93-2.73-22.68-8.12-6.18-7.02-5.13-15.88-5.09-16.26,.07-.53,.55-.91,1.09-.84,.53,.07,.91,.55,.84,1.09-.01,.08-.97,8.4,4.63,14.74,4.37,4.94,11.5,7.45,21.2,7.45,.54,0,.97,.44,.97,.97s-.44,.97-.97,.97Z"/>
        <path class="cls-27" d="M212.05,576.48c-.54,0-.97-.44-.97-.97s.44-.97,.97-.97c9.71,0,16.85-2.51,21.22-7.47,5.61-6.36,4.63-14.64,4.62-14.72-.07-.53,.31-1.02,.84-1.09,.54-.06,1.02,.31,1.09,.84,.05,.37,1.09,9.24-5.09,16.26-4.75,5.39-12.38,8.12-22.68,8.12Z"/>
        <path class="cls-27" d="M362.53,831.87c-.92,0-1.74-.05-2.43-.13-2.59-.27-4.79-2.17-5.48-4.72l-5.11-18.58c-.14-.52,.16-1.05,.68-1.2,.52-.15,1.05,.16,1.2,.68l5.11,18.58c.48,1.79,2.01,3.11,3.81,3.3,2.87,.31,8.32,.28,12.47-3.36,1.09-.95,1.64-2.48,1.45-3.99l-2.29-16.63c-.07-.53,.3-1.02,.83-1.1,.52-.07,1.02,.3,1.1,.83l2.29,16.64c.28,2.16-.52,4.34-2.1,5.71-3.69,3.23-8.21,3.96-11.53,3.96Z"/>
        <path class="cls-27" d="M241.38,827.32c-4.9,0-8.61-2.56-8.67-2.6-.26-.18-.41-.48-.41-.79v-14.69c0-.54,.44-.97,.97-.97s.97,.44,.97,.97v14.16c1.6,.97,7.53,3.99,13.59,.02v-15.11c0-.54,.44-.97,.97-.97s.97,.44,.97,.97v15.62c0,.32-.15,.61-.41,.79-2.75,1.95-5.52,2.6-7.99,2.6Z"/>
        <path class="cls-27" d="M285.88,317.44c-11.2,0-20.31-7.64-20.31-17.03,0-.54,.44-.97,.97-.97s.97,.44,.97,.97c0,8.32,8.24,15.08,18.36,15.08s18.36-6.77,18.36-15.08v-.87c0-.54,.44-.97,.97-.97s.97,.44,.97,.97v.87c0,9.39-9.11,17.03-20.31,17.03Z"/>
        <g>
          <path class="cls-27" d="M506.51,285.12c-.14,0-.28-.03-.42-.09-.49-.23-.69-.81-.46-1.29l11.29-23.9c.02-.05,.05-.1,.08-.15l11.5-16.29,1.87-15.54-8.13-11.89-3.66-2.92h-12.09c-.54,0-.97-.44-.97-.97s.44-.97,.97-.97h12.43c.22,0,.43,.08,.61,.21l4.04,3.22c.08,.06,.14,.13,.2,.21l8.42,12.31c.13,.19,.19,.43,.16,.67l-1.95,16.14c-.02,.16-.08,.31-.17,.44l-11.59,16.42-11.26,23.82c-.17,.35-.52,.56-.88,.56Z"/>
          <path class="cls-27" d="M490.95,276.47c-.54,0-.97-.44-.97-.97v-56.12c0-.14,.03-.27,.08-.39l18.79-42.54c.22-.49,.79-.71,1.28-.5,.49,.22,.71,.79,.5,1.28l-18.7,42.35v55.92c0,.54-.44,.97-.97,.97Z"/>
          <path class="cls-27" d="M503.87,218.55c-.13,0-.27-.03-.4-.09-.49-.22-.71-.8-.48-1.29l14.4-31.68c.22-.49,.8-.71,1.29-.48,.49,.22,.71,.8,.48,1.29l-14.4,31.68c-.16,.36-.52,.57-.89,.57Z"/>
          <path class="cls-27" d="M519.81,183.85c-.11,0-.22-.02-.33-.06-.5-.18-.77-.74-.58-1.25,.01-.04,1.5-4.31-.75-7.47-.5-.7-1.08-1.08-1.8-1.18-1.79-.25-3.77,1.35-3.79,1.37-.42,.34-1.03,.28-1.37-.14-.34-.42-.28-1.03,.13-1.37,.11-.09,2.64-2.15,5.27-1.79,1.26,.17,2.32,.83,3.13,1.98,2.85,4,1.07,9.04,.99,9.26-.14,.4-.52,.64-.91,.64Z"/>
        </g>
        <g>
          <path class="cls-27" d="M474.78,516.99h-41.78c-.54,0-.97-.44-.97-.97s.44-.97,.97-.97h41.78c.54,0,.97,.44,.97,.97s-.44,.97-.97,.97Z"/>
          <path class="cls-27" d="M458.96,522.8h-25.96c-.54,0-.97-.44-.97-.97s.44-.97,.97-.97h25.96c.54,0,.97,.44,.97,.97s-.44,.97-.97,.97Z"/>
          <path class="cls-27" d="M458.96,528.63h-25.96c-.54,0-.97-.44-.97-.97s.44-.97,.97-.97h25.96c.54,0,.97,.44,.97,.97s-.44,.97-.97,.97Z"/>
        </g>
        <path class="cls-27" d="M433,510.57c-.17,0-.34-.04-.49-.13-.3-.17-.49-.5-.49-.84v-39.57c0-.35,.19-.67,.49-.84s.67-.17,.97,0l34.26,19.8c.3,.17,.49,.5,.49,.84,0,.35-.19,.67-.49,.84l-34.26,19.77c-.15,.09-.32,.13-.49,.13Zm.97-38.86v36.2l31.34-18.09-31.34-18.12Z"/>
        <g>
          <path class="cls-27" d="M416.36,448.72c-1.78,0-3.22-1.45-3.22-3.22s1.45-3.22,3.22-3.22,3.22,1.45,3.22,3.22-1.45,3.22-3.22,3.22Zm0-4.99c-.98,0-1.77,.79-1.77,1.77s.79,1.77,1.77,1.77,1.77-.79,1.77-1.77-.79-1.77-1.77-1.77Z"/>
          <path class="cls-27" d="M426.32,448.72c-1.78,0-3.22-1.45-3.22-3.22s1.45-3.22,3.22-3.22,3.22,1.45,3.22,3.22-1.45,3.22-3.22,3.22Zm0-4.99c-.98,0-1.77,.79-1.77,1.77s.79,1.77,1.77,1.77,1.77-.79,1.77-1.77-.79-1.77-1.77-1.77Z"/>
          <path class="cls-27" d="M436.48,448.72c-1.78,0-3.22-1.45-3.22-3.22s1.45-3.22,3.22-3.22,3.22,1.45,3.22,3.22-1.45,3.22-3.22,3.22Zm0-4.99c-.98,0-1.77,.79-1.77,1.77s.79,1.77,1.77,1.77,1.77-.79,1.77-1.77-.79-1.77-1.77-1.77Z"/>
        </g>
        <path class="cls-27" d="M239.52,838.83c-11.13,0-20.19-6.05-20.19-13.49,0-4.6,3.41-8.83,9.12-11.31,.49-.22,1.07,.01,1.28,.5,.21,.49-.01,1.07-.5,1.28-4.98,2.17-7.95,5.73-7.95,9.53,0,6.36,8.19,11.54,18.25,11.54s18.25-5.18,18.25-11.54c0-3.25-2.21-6.37-6.07-8.56-.47-.27-.63-.86-.37-1.33,.26-.47,.86-.63,1.33-.37,4.48,2.55,7.05,6.29,7.05,10.25,0,7.44-9.06,13.49-20.19,13.49Z"/>
        <g>
          <path class="cls-27" d="M194.98,880.7s-.09,0-.13,0c-7.96-.98-15.61-3.12-22.76-6.36-.24-.11-.43-.3-.54-.54-2.45-5.36-1.22-11.62,3.07-15.6,7.82-7.27,24.45-20.54,47.98-27.65,.58-.18,1.18,.15,1.36,.73,.17,.58-.15,1.18-.73,1.36-23.11,6.98-39.45,20.02-47.13,27.16-3.5,3.24-4.57,8.31-2.73,12.72,6.84,3.05,14.15,5.07,21.75,6.01,.6,.07,1.02,.62,.95,1.21-.07,.55-.54,.96-1.08,.96Z"/>
          <path class="cls-27" d="M210.6,880.23c-.55,0-1.02-.41-1.08-.96-.07-.6,.36-1.14,.96-1.21,15.99-1.85,31.82-5.5,47.07-10.86,1.71-3.62,2.43-7.64,2.08-11.66l-2.38-26.91c-.05-.6,.39-1.13,.99-1.18,.59-.05,1.13,.39,1.18,.99l2.38,26.91c.4,4.56-.47,9.13-2.49,13.21-.13,.25-.35,.45-.61,.54-15.53,5.49-31.67,9.23-47.97,11.12-.04,0-.08,0-.13,0Zm47.73-12.15h0Z"/>
        </g>
        <g class="cls-38">
          <circle class="cls-23" cx="119.98" cy="579.69" r="32.98"/>
          <path class="cls-23" d="M118.04,593.71c-.75,0-1.51-.2-2.18-.58l-16.49-9.7c-2.03-1.19-2.73-3.83-1.51-5.86,1.19-2.03,3.83-2.73,5.86-1.51l12.69,7.46,10.95-19.77c1.16-2.06,3.77-2.82,5.84-1.68,2.06,1.16,2.82,3.77,1.68,5.84l-13.09,23.6c-.55,1.02-1.51,1.74-2.61,2.06-.38,.09-.75,.15-1.13,.15h0Z"/>
        </g>
        <path class="cls-17" d="M119.43,595.57c-.75,0-1.51-.2-2.18-.58l-16.49-9.7c-2.03-1.19-2.73-3.83-1.51-5.86,1.19-2.03,3.83-2.73,5.86-1.51l12.69,7.46,10.95-19.77c1.16-2.06,3.77-2.82,5.84-1.68,2.06,1.16,2.82,3.77,1.68,5.84l-13.09,23.6c-.55,1.02-1.51,1.74-2.61,2.06-.38,.09-.75,.15-1.13,.15h0Z"/>
        <path class="cls-5" d="M91.09,572.2c-.35,0-.7-.06-1.04-.19-1.5-.57-2.25-2.25-1.67-3.75,.09-.23,9.12-23.14,33.62-22.25,1.6,.06,2.85,1.41,2.79,3.01-.06,1.6-1.4,2.85-3.01,2.79-20.36-.78-27.91,18.33-27.99,18.52-.44,1.16-1.54,1.87-2.71,1.87Z"/>
        <path class="cls-27" d="M119.98,613.65c-18.72,0-33.96-15.23-33.96-33.96s15.23-33.96,33.96-33.96,33.96,15.23,33.96,33.96-15.23,33.96-33.96,33.96Zm0-65.97c-17.65,0-32.01,14.36-32.01,32.01s14.36,32.01,32.01,32.01,32.01-14.36,32.01-32.01-14.36-32.01-32.01-32.01Z"/>
        <path class="cls-27" d="M119.75,596.4c-.92,0-1.84-.24-2.66-.71l-16.51-9.71c-1.21-.71-2.08-1.86-2.43-3.23-.35-1.36-.14-2.77,.58-3.98,.71-1.21,1.85-2.07,3.22-2.42,1.36-.35,2.77-.14,3.98,.58l11.82,6.95,10.46-18.9c1.42-2.53,4.63-3.45,7.16-2.07,2.53,1.43,3.45,4.63,2.07,7.16l-13.1,23.61c-.65,1.2-1.82,2.13-3.19,2.52-.55,.13-.99,.18-1.4,.18Zm-16.49-18.26c-.27,0-.55,.03-.82,.1-.86,.22-1.58,.76-2.03,1.53-.46,.76-.58,1.65-.37,2.5,.22,.86,.76,1.59,1.53,2.03l16.49,9.7c.51,.29,1.1,.45,1.68,.45,.27,0,.56-.04,.91-.12,.83-.24,1.57-.82,1.98-1.58l13.1-23.61c.87-1.59,.29-3.62-1.31-4.52-1.58-.87-3.61-.28-4.51,1.31l-11.43,20.64-13.55-7.97c-.52-.31-1.09-.47-1.68-.47Z"/>
        <circle class="cls-33" cx="389.13" cy="176.67" r="32.98"/>
        <path class="cls-18" d="M422.11,177.66c0,12.31-6.71,23.02-16.67,28.69,3.8-5.37,6.01-11.93,6.01-18.99,0-18.23-14.78-32.98-32.98-32.98-5.92,0-11.5,1.57-16.29,4.3,5.95-8.48,15.79-14.02,26.97-14.02,18.23,0,32.98,14.78,32.98,32.98l-.03,.03Z"/>
        <path class="cls-33" d="M387.18,190.69c-.75,0-1.51-.2-2.18-.58l-16.49-9.7c-2.03-1.19-2.73-3.83-1.51-5.86,1.19-2.03,3.83-2.73,5.86-1.51l12.69,7.46,10.95-19.77c1.16-2.06,3.77-2.82,5.84-1.68,2.06,1.16,2.82,3.77,1.68,5.84l-13.09,23.6c-.55,1.02-1.51,1.74-2.61,2.06-.38,.09-.75,.15-1.13,.15h0Z"/>
        <path class="cls-5" d="M388.58,192.55c-.75,0-1.51-.2-2.18-.58l-16.49-9.7c-2.03-1.19-2.73-3.83-1.51-5.86,1.19-2.03,3.83-2.73,5.86-1.51l12.69,7.46,10.95-19.77c1.16-2.06,3.77-2.82,5.84-1.68,2.06,1.16,2.82,3.77,1.68,5.84l-13.09,23.6c-.55,1.02-1.51,1.74-2.61,2.06-.38,.09-.75,.15-1.13,.15h0Z"/>
        <path class="cls-5" d="M360.27,169.18c-.35,0-.7-.06-1.04-.19-1.5-.57-2.25-2.25-1.67-3.75,.09-.23,9.13-23.16,33.62-22.24,1.6,.06,2.85,1.41,2.79,3.01-.06,1.6-1.38,2.86-3.01,2.79-20.35-.76-27.91,18.33-27.99,18.52-.44,1.16-1.54,1.87-2.71,1.87Z"/>
        <path class="cls-27" d="M389.13,210.62c-18.72,0-33.96-15.23-33.96-33.96s15.23-33.96,33.96-33.96,33.96,15.23,33.96,33.96-15.23,33.96-33.96,33.96Zm0-65.97c-17.65,0-32.01,14.36-32.01,32.01s14.36,32.01,32.01,32.01,32.01-14.36,32.01-32.01-14.36-32.01-32.01-32.01Z"/>
        <path class="cls-27" d="M388.9,193.38c-.92,0-1.84-.24-2.66-.71l-16.51-9.71c-1.21-.71-2.08-1.86-2.43-3.23-.35-1.36-.14-2.77,.58-3.97,.71-1.21,1.85-2.07,3.22-2.42,1.36-.35,2.78-.14,3.98,.58l11.82,6.95,10.46-18.9c1.42-2.53,4.63-3.45,7.15-2.07,2.53,1.43,3.45,4.63,2.07,7.16l-13.1,23.61c-.65,1.2-1.82,2.13-3.19,2.52-.55,.13-.99,.18-1.4,.18Zm-16.48-18.26c-.27,0-.55,.03-.82,.1-.86,.22-1.58,.76-2.03,1.53-.46,.76-.58,1.65-.37,2.5,.22,.86,.76,1.59,1.53,2.03l16.49,9.7c.51,.29,1.1,.45,1.68,.45,.26,0,.56-.04,.91-.12,.83-.24,1.57-.82,1.98-1.58l13.1-23.61c.87-1.59,.29-3.62-1.31-4.52-1.58-.87-3.61-.28-4.51,1.31l-11.43,20.64-13.55-7.97c-.52-.31-1.09-.47-1.68-.47Z"/>
        <g>
          <g>
            <path class="cls-27" d="M68.45,296.45c-.52,0-.95-.41-.97-.93-.73-17.99-21.29-34.48-21.5-34.64-.23-.18-.37-.47-.37-.76v-14.55c0-.06,0-.12,.02-.18,.06-.34,1.65-8.37,9.57-10.63,.52-.15,1.05,.15,1.2,.67,.15,.52-.15,1.05-.67,1.2-6.39,1.82-8,8.25-8.18,9.04v13.98c1.3,1.08,5.8,4.93,10.43,10.54,5,6.06,11.04,15.35,11.44,25.25,.02,.54-.4,.99-.93,1.01-.01,0-.03,0-.04,0Z"/>
            <path class="cls-27" d="M89.85,293.4c-.39,0-.76-.24-.91-.63-3.52-9.41-12.6-19.3-12.69-19.39-.36-.39-.34-1.01,.05-1.37,.39-.36,1.01-.34,1.37,.05,.38,.41,9.43,10.27,13.09,20.03,.19,.5-.07,1.06-.57,1.25-.11,.04-.23,.06-.34,.06Z"/>
            <path class="cls-27" d="M80.15,277.46s-.06,0-.09,0c-.53-.05-.93-.53-.88-1.06l3.22-33.31-29.17-40.44c-.31-.44-.22-1.04,.22-1.36,.44-.31,1.04-.22,1.36,.22l29.38,40.73c.14,.19,.2,.43,.18,.66l-3.25,33.68c-.05,.5-.47,.88-.97,.88Z"/>
            <path class="cls-27" d="M60.78,238.44c-.36,0-.71-.2-.87-.55l-14.11-28.92c-.24-.48-.04-1.07,.45-1.3,.48-.23,1.07-.04,1.3,.45l14.11,28.92c.24,.48,.04,1.07-.45,1.3-.14,.07-.28,.1-.43,.1Z"/>
          </g>
          <path class="cls-27" d="M44.96,205.31c-.45,0-.85-.31-.95-.76-.04-.18-.92-4.36,2-6.48,.44-.32,1.04-.22,1.36,.22,.32,.43,.22,1.04-.22,1.36-1.9,1.38-1.25,4.46-1.25,4.49,.11,.52-.22,1.04-.74,1.16-.07,.02-.14,.02-.21,.02Z"/>
          <path class="cls-27" d="M51.96,200.78c-.27,0-.54-.11-.73-.33-.87-.98-1.36-1.24-1.53-1.3-.35,.16-.77,.11-1.07-.17-.4-.36-.42-.98-.06-1.37,.09-.1,.46-.41,1.08-.42,.87,0,1.87,.66,3.04,1.98,.36,.4,.32,1.02-.08,1.37-.19,.16-.42,.24-.64,.24Zm-1.96-1.85h0s0,0,0,0Zm0,0h0s0,0,0,0Z"/>
        </g>
        <rect class="cls-5" x="143.57" y="141.39" width="62.98" height="7.29" transform="translate(-33.8 234.82) rotate(-62.9)"/>
        <rect class="cls-5" x="153.65" y="145.95" width="62.98" height="7.29" transform="translate(-32.37 246.27) rotate(-62.9)"/>
        <path class="cls-27" d="M186.44,187.03c-.18,0-.37-.04-.54-.13l-76.59-38.03c-.34-.17-.58-.48-.65-.85-.07-.37,.03-.75,.28-1.04,15.74-18.09,25.45-55.68,25.55-56.06,.09-.35,.33-.65,.66-.8,.33-.15,.71-.16,1.04,0l79.35,37.51c.3,.14,.52,.39,.63,.7,.11,.31,.08,.65-.06,.94l-28.57,57.08c-.21,.43-.64,.67-1.09,.67Zm-74.66-39.65l74.11,36.8,27.47-54.88-76.9-36.35c-.85,3.1-3.1,10.93-6.52,20.03-5.64,15.04-11.75,26.6-18.15,34.4Z"/>
        <path class="cls-27" d="M154.71,130.29c-.14,0-.28-.03-.42-.09l-17.27-8.25c-.47-.23-.68-.79-.47-1.27l6.62-15.04c.22-.49,.79-.71,1.28-.5l19.39,8.42c.26,.11,.45,.33,.54,.59,.09,.27,.05,.55-.09,.79l-8.74,14.87c-.18,.31-.5,.48-.84,.48Zm-16-9.69l15.62,7.46,7.73-13.15-17.5-7.6-5.85,13.29Z"/>
        <path class="cls-27" d="M172.33,148.29c-.14,0-.29-.03-.43-.1l-36.52-18c-.48-.24-.68-.82-.44-1.3,.24-.48,.82-.68,1.3-.44l36.52,18c.48,.24,.68,.82,.44,1.3-.17,.34-.51,.54-.87,.54Z"/>
        <path class="cls-27" d="M148.73,142.1c-.14,0-.28-.03-.42-.1l-14.87-7.11c-.48-.23-.69-.81-.46-1.3,.23-.49,.81-.69,1.3-.46l14.87,7.11c.48,.23,.69,.81,.46,1.3-.17,.35-.52,.55-.88,.55Z"/>
        <path class="cls-27" d="M161.82,155.87c-.14,0-.28-.03-.42-.1l-31.82-15.21c-.48-.23-.69-.81-.46-1.3,.23-.49,.81-.69,1.3-.46l31.82,15.21c.48,.23,.69,.81,.46,1.3-.17,.35-.52,.55-.88,.55Z"/>
        <path class="cls-27" d="M255.05,183.64c-.06,2.64,1.42,5.23,3.75,6.47,.81,.44,1.54-.81,.73-1.25-1.92-1.05-3.08-3.11-3.02-5.23,0-.93-1.42-.93-1.45,0h0Z"/>
        <path class="cls-27" d="M312.68,184.83c.46-.67,.84-1.42,1.07-2.21,.12-.35-.15-.81-.49-.9-.41-.09-.75,.12-.9,.49-.06,.23-.15,.44-.23,.64l.09-.17c-.2,.49-.46,.96-.78,1.39-.12,.15-.12,.41-.09,.55s.17,.35,.32,.44c.17,.09,.38,.15,.55,.09s.32-.17,.44-.32h.03Z"/>
        <path class="cls-27" d="M221.52,168.13c-1.02,1.34-1.8,2.85-2.21,4.47-.09,.38,.12,.81,.49,.9s.78-.12,.9-.49c.09-.38,.2-.73,.32-1.1,.06-.17,.15-.35,.2-.52-.06,.12,.06-.15,.06-.15,.03-.09,.06-.15,.12-.23,.17-.32,.35-.67,.52-.96,.09-.17,.2-.32,.32-.49,.06-.09,.12-.15,.17-.23,0,0,.17-.23,.12-.15,.23-.29,.32-.73,0-1.02-.26-.23-.78-.32-1.02,0h0v-.03Z"/>
        <path class="cls-27" d="M220.91,201.93c-2.24-8.04-2.82-16.46-1.65-24.74,.12-.9-1.28-1.31-1.39-.38-1.22,8.54-.67,17.19,1.65,25.52,.26,.9,1.65,.52,1.39-.38h0v-.03Z"/>
        <path class="cls-27" d="M511.12,190.8c-.82,0-1.63-.21-2.36-.61-1.15-.63-1.99-1.68-2.35-2.94l-13.4-46.15c-.37-1.26-.22-2.59,.41-3.74,.63-1.15,1.68-1.99,2.94-2.35l53.9-15.65c1.26-.37,2.59-.22,3.74,.41,1.15,.63,1.99,1.68,2.35,2.94l13.4,46.15c.76,2.61-.75,5.34-3.35,6.1l-53.9,15.65c-.45,.13-.92,.2-1.38,.2Zm40.51-69.69c-.27,0-.55,.04-.83,.12l-53.9,15.65h0c-.76,.22-1.39,.73-1.78,1.42-.38,.7-.47,1.5-.25,2.26l13.4,46.15c.46,1.58,2.12,2.48,3.69,2.03l53.9-15.65c1.58-.46,2.49-2.11,2.03-3.69l-13.4-46.15c-.38-1.3-1.57-2.15-2.86-2.15Zm-55,14.83h0Z"/>
        <path class="cls-27" d="M285.22,189.47c2.76,3.92,8.25,5.14,12.8,4.91,2.5-.12,4.99-.78,7.14-2.12,2.26-1.39,4.12-3.4,5.92-5.31,.64-.67-.38-1.71-1.02-1.02-3.34,3.51-6.65,6.62-11.73,6.97-4.04,.29-9.35-.61-11.87-4.18-.52-.75-1.8-.03-1.25,.73h0v.03Z"/>
        <g>
          <path class="cls-27" d="M313.58,641.95c-.29,0-.56-.19-.65-.48l-3.48-11.44c-.11-.36,.09-.74,.45-.85,.36-.11,.74,.09,.85,.45l3.48,11.44c.11,.36-.09,.74-.45,.85-.07,.02-.13,.03-.2,.03Z"/>
          <path class="cls-27" d="M312.04,646.83c-.29,0-.56-.19-.65-.48l-3.48-11.44c-.11-.36,.09-.74,.45-.85,.36-.11,.74,.09,.85,.45l3.48,11.44c.11,.36-.09,.74-.45,.85-.07,.02-.13,.03-.2,.03Z"/>
        </g>
        <g>
          <path class="cls-27" d="M348.28,381.17c-.36,0-.66-.28-.68-.65l-.64-11.96c-.02-.38,.27-.7,.65-.72,.37,0,.7,.27,.72,.65l.64,11.96c.02,.38-.27,.7-.65,.72-.01,0-.02,0-.04,0Z"/>
          <path class="cls-27" d="M345.87,385.58c-.35,0-.65-.27-.68-.63l-.9-11.93c-.03-.38,.25-.7,.63-.73,.39-.02,.7,.25,.73,.63l.9,11.93c.03,.38-.25,.7-.63,.73-.02,0-.03,0-.05,0Z"/>
        </g>
        <g>
          <path class="cls-27" d="M421.91,390.78c-.06,0-.13,0-.19-.03l-11.5-3.37c-.36-.11-.57-.48-.46-.85,.11-.36,.49-.57,.85-.46l11.5,3.37c.36,.11,.57,.48,.46,.85-.09,.3-.36,.49-.65,.49Z"/>
          <path class="cls-27" d="M418.6,386.77c-.06,0-.12,0-.18-.02l-11.56-3.11c-.36-.1-.58-.47-.48-.84,.1-.36,.47-.58,.84-.48l11.56,3.11c.36,.1,.58,.47,.48,.84-.08,.3-.36,.51-.66,.51Z"/>
        </g>
        <g>
          <path class="cls-27" d="M224.51,739.25s-.02,0-.03,0c-.38-.02-.67-.34-.65-.71l.58-11.96c.02-.38,.34-.66,.71-.65,.38,.02,.67,.34,.65,.71l-.58,11.96c-.02,.37-.32,.65-.68,.65Z"/>
          <path class="cls-27" d="M221.43,743.31s-.02,0-.03,0c-.38-.02-.67-.34-.65-.71l.58-11.93c.02-.38,.34-.64,.71-.65,.38,.02,.67,.34,.65,.71l-.58,11.93c-.02,.37-.32,.65-.68,.65Z"/>
        </g>
        <g>
          <ellipse class="cls-7" cx="306.48" cy="159.74" rx="8.45" ry="6.3" transform="translate(-10.63 297.17) rotate(-50.96)"/>
          <ellipse class="cls-7" cx="306.55" cy="171.96" rx="3.4" ry="2.53" transform="translate(-35.87 92.65) rotate(-16.25)"/>
        </g>
        <path class="cls-1" d="M243.7,229.92c1.86-2.96,2.53-6.88,2.29-10.34-.26-4.06-1.16-8.77-3.08-12.37l-1.74,4.27c3.6-.84,7.29-1.83,10.45-3.83,3.46-2.18,6.01-5.37,7.66-9.09,.64-1.42,.41-3.11-1.05-3.98-1.25-.73-3.31-.41-3.98,1.05-1.31,2.93-3.08,5.52-5.89,7.2s-5.75,2.35-8.74,3.05c-1.89,.44-2.58,2.67-1.74,4.27,.73,1.39,1.05,2.99,1.39,4.5,.41,1.63,.78,3.28,.9,4.94,.17,2.5-.17,5.26-1.51,7.4-1.97,3.16,3.02,6.1,4.99,2.93h.03Z"/>
        <path class="cls-27" d="M282.87,284.57c-9.98,0-18.58-3.98-24.49-7.74-13.29-8.43-22.8-22.55-26.09-38.74l-1.34-6.59c-.06-.32,.02-.65,.22-.9s.51-.4,.83-.41c.31,0,7.65-.26,7.93-8.15,.3-8.64-6-19.69-6.07-19.8-.3-.52-.12-1.19,.4-1.49,.52-.3,1.19-.12,1.49,.4,.27,.47,6.69,11.7,6.36,20.96-.27,7.75-6.13,9.64-8.79,10.11l1.1,5.43c3.17,15.61,12.33,29.22,25.12,37.33,6.98,4.45,17.89,9.22,30.27,6.7,18.05-3.68,28.79-15.93,31.92-36.43,.68-4.55,.91-9.21,.69-13.83-.03-.6,.43-1.11,1.03-1.14,.61-.03,1.11,.43,1.14,1.03,.24,4.77,0,9.57-.71,14.27-3.24,21.2-14.87,34.42-33.64,38.24-2.53,.51-4.99,.74-7.38,.74Z"/>
        <path class="cls-7" d="M253.19,140.11c2.61-3.8,7-6.16,11.53-6.79,5.4-.78,10.86,.99,15.39,3.83,3.16,1.97,6.07-3.02,2.93-4.99-5.81-3.66-12.72-5.49-19.54-4.47-6.18,.93-11.76,4.38-15.3,9.52-.9,1.28-.23,3.22,1.05,3.98,1.45,.84,3.08,.26,3.98-1.05h0l-.03-.03Z"/>
        <path class="cls-10" d="M254.82,138.17c.38-.38,.78-.75,1.19-1.1,.12-.09,.2-.17,.32-.26,.52-.44-.35,.26-.03,0,.23-.15,.44-.32,.67-.46,.93-.64,1.89-1.19,2.9-1.65,.12-.06,.23-.12,.38-.17,.35-.17,0,.03-.15,.06,.23,0,.52-.2,.75-.29,.52-.17,1.02-.35,1.54-.49,.55-.15,1.1-.29,1.68-.38,.26-.06,.52-.09,.81-.15,.41-.06-.58,.06-.17,0,.17,0,.35-.03,.49-.06,.78-.09,1.48-.26,2.06-.84,.49-.49,.87-1.34,.84-2.06-.06-1.45-1.28-3.05-2.9-2.9-5.43,.55-10.57,2.73-14.46,6.59-1.07,1.07-1.16,3.05,0,4.09s2.96,1.13,4.09,0h0l-.03,.09Z"/>
        <path class="cls-27" d="M291.49,143.03c-.41,0-.8-.23-.99-.62-.24-.51-6.11-12.51-21.94-13.11-.6-.02-1.07-.53-1.05-1.13s.54-1.07,1.13-1.05c17.19,.66,23.56,13.8,23.82,14.36,.26,.54,.02,1.19-.52,1.45-.15,.07-.31,.1-.46,.1Z"/>
        <path class="cls-27" d="M214.31,177.9c-.6,0-1.09-.49-1.09-1.09,0-24.72,24.72-30.44,29.22-31.27,1.13-3.41,7.02-18.45,23.02-18.45,.6,0,1.09,.49,1.09,1.09s-.49,1.09-1.09,1.09c-6.8,0-12.41,2.91-16.67,8.66-3.24,4.36-4.44,8.81-4.46,8.85-.11,.42-.47,.74-.91,.8-.07,0-7.17,1.01-14.14,5.14-9.22,5.46-13.89,13.57-13.89,24.09,0,.6-.49,1.09-1.09,1.09Z"/>
        <path class="cls-7" d="M294.48,139.94c1.83,.49,3.69,1.02,5.46,1.65,.23,.09,.46,.17,.7,.26,.12,.06,.23,.09,.35,.15-.41-.17-.46-.2-.17-.09,.38,.17,.78,.35,1.16,.55,.87,.44,1.71,.93,2.5,1.51,.58,.41,1.57,.46,2.24,.29s1.39-.7,1.74-1.34c.78-1.48,.29-3.02-1.05-3.98-3.37-2.38-7.4-3.54-11.35-4.62-1.45-.41-3.22,.49-3.57,2.03s.46,3.14,2.03,3.57h-.03Z"/>
        <path class="cls-27" d="M298.98,136.3c-.11,0-.23-.02-.35-.06-4.26-1.43-9.03-1.98-14.18-1.63-.6,.04-1.12-.41-1.16-1.01-.04-.6,.41-1.12,1.01-1.16,5.44-.37,10.5,.22,15.02,1.74,.57,.19,.88,.81,.69,1.38-.15,.46-.58,.74-1.03,.74Z"/>
        <path class="cls-27" d="M322.09,161.41c-.52,0-.98-.37-1.07-.9-.03-.15-2.9-15.53-18.17-22.51-.55-.25-.79-.9-.54-1.44,.25-.55,.9-.79,1.44-.54,16.33,7.47,19.29,23.44,19.41,24.12,.1,.59-.29,1.15-.88,1.26-.06,.01-.13,.02-.19,.02Z"/>
        <path class="cls-7" d="M296.54,154.17c-1.68,1.1-2.96,2.85-3.46,4.82-.26,1.02-.35,2.09-.64,3.08-.49,1.65-1.57,3.11-3.02,4.04-1.05,.67-2.38,1.05-3.57,.7-.9-.29-1.63-.96-2.29-1.63-1.22-1.19-2.55-2.64-2.35-4.33,.12-.84,.58-1.57,1.05-2.26,.93-1.42,1.89-2.87,2.82-4.3,1.36-2.06,2.82-4.24,5.08-5.28,2-.9,4.33-.78,6.42-.09,1.65,.55,3.43,1.83,3.34,3.6-.09,1.57-1.63,2.64-3.05,3.34-1.28,.61-2.58,1.1-3.95,1.48"/>
        <path class="cls-4" d="M219.74,424.39c-1.5,0-2.77-1.15-2.89-2.67-3.03-37.8-3.03-38.15-3.03-38.29,0-1.6,1.3-2.9,2.9-2.9s2.84,1.24,2.9,2.79c.08,1.27,2.2,27.79,3.01,37.95,.13,1.6-1.06,3-2.66,3.13-.08,0-.16,0-.24,0Zm-.11-40.97h0Z"/>
        <path class="cls-4" d="M225.23,434.08c-1.5,0-2.77-1.15-2.89-2.67-3.03-37.8-3.03-38.15-3.03-38.29,0-1.6,1.3-2.9,2.9-2.9s2.84,1.24,2.9,2.79c.08,1.27,2.2,27.79,3.01,37.95,.13,1.6-1.06,3-2.66,3.13-.08,0-.16,0-.24,0Zm-.11-40.97h0Z"/>
        <path class="cls-27" d="M220.03,457.94c-.56,0-1.04-.44-1.08-1.01l-5.84-77.61c-.04-.6,.4-1.12,1-1.17,.6-.04,1.12,.4,1.17,1l5.84,77.61c.04,.6-.4,1.12-1,1.17-.03,0-.06,0-.08,0Z"/>
        <g>
          <path class="cls-1" d="M257.28,199.98c4.5,2.21,9.32,3.05,14.28,2.24,4.09-.67,8.33-2.5,11.12-5.66,1.05-1.16,1.16-2.93,0-4.09-1.05-1.05-3.05-1.19-4.09,0-2.12,2.38-4.99,3.54-8.25,4.12-3.05,.55-7-.06-10.13-1.6-1.39-.7-3.14-.38-3.98,1.05-.75,1.28-.38,3.28,1.05,3.98h0v-.03Z"/>
          <path class="cls-1" d="M277.55,196.73c3.4,6.04,10.05,9.41,16.93,9.09,1.51-.09,2.96-1.28,2.9-2.9-.06-1.51-1.28-2.96-2.9-2.9-.73,.03-1.42,.03-2.15,0-.17,0-.35,0-.52-.06-.26,0-.55-.2,.03,0-.32-.12-.7-.12-1.02-.17-.64-.15-1.28-.32-1.89-.52-.17-.06-.32-.12-.49-.17-.09-.03-.61-.29-.23-.09s-.17-.09-.2-.12c-.15-.09-.29-.15-.46-.23-.58-.29-1.13-.64-1.65-.99,0,0-.58-.38-.2-.15s-.12-.09-.17-.15c-.26-.23-.52-.44-.75-.7s-.49-.49-.73-.75c-.09-.12-.17-.2-.26-.32-.06-.09-.15-.15-.2-.23-.15-.17-.09-.12,.12,.17,0-.15-.46-.64-.55-.78-.2-.32-.41-.67-.61-1.02-.75-1.31-2.67-1.89-3.98-1.05s-1.83,2.55-1.05,3.98h0l.06,.06Z"/>
        </g>
        <path class="cls-27" d="M270.73,198.14c-.58,0-1.06-.46-1.09-1.04-.03-.6,.44-1.11,1.04-1.14,.37-.02,8.78-.56,10.54-10.17,.11-.59,.68-.98,1.27-.87,.59,.11,.98,.68,.87,1.27-2.08,11.35-12.47,11.95-12.58,11.95-.02,0-.03,0-.05,0Z"/>
        <path class="cls-27" d="M295.72,201.32c-6.77,0-10.69-2.81-12.81-5.21-2.4-2.73-3.05-5.52-3.08-5.64-.13-.59,.24-1.17,.82-1.3,.58-.13,1.17,.23,1.3,.82h0c.09,.39,2.37,9.55,14.52,9.14,.62-.01,1.1,.45,1.12,1.05,.02,.6-.45,1.1-1.05,1.12-.28,0-.56,.01-.83,.01Z"/>
        <path class="cls-27" d="M266.75,198.14c-4.7,0-8.48-1.43-11.24-4.24-4.81-4.91-4.72-12.24-4.72-12.55,.01-.6,.54-1.06,1.11-1.07,.6,.01,1.08,.51,1.07,1.11,0,.07-.07,6.74,4.11,10.99,2.33,2.37,5.59,3.58,9.67,3.58,.6,0,1.09,.49,1.09,1.09s-.49,1.09-1.09,1.09Z"/>
        <path class="cls-21" d="M559.59,461h-.01l-37.45-.12c-2.13,0-3.86-1.74-3.85-3.87,0-2.13,1.73-3.85,3.86-3.85h.01l37.45,.12c2.13,0,3.86,1.74,3.85,3.87,0,2.13-1.73,3.85-3.86,3.85Z"/>
        <path class="cls-21" d="M419.96,460.88c-2.12,0-3.84-1.71-3.86-3.83-.02-2.13,1.7-3.88,3.83-3.89l23.17-.17h.03c2.12,0,3.84,1.71,3.86,3.83,.02,2.13-1.7,3.88-3.83,3.89l-23.17,.17h-.03Z"/>
        <path class="cls-27" d="M562.23,562.89h-149.96c-4.92,0-8.93-4-8.93-8.93v-107.6c0-4.92,4-8.93,8.93-8.93h149.96c4.92,0,8.93,4,8.93,8.93v107.6c0,4.92-4,8.93-8.93,8.93Zm-149.96-123.51c-3.85,0-6.98,3.13-6.98,6.98v107.6c0,3.85,3.13,6.98,6.98,6.98h149.96c3.85,0,6.98-3.13,6.98-6.98v-107.6c0-3.85-3.13-6.98-6.98-6.98h-149.96Z"/>
        <path class="cls-27" d="M570.18,454.83h-165.87c-.54,0-.97-.44-.97-.97s.44-.97,.97-.97h165.87c.54,0,.97,.44,.97,.97s-.44,.97-.97,.97Z"/>
        <path class="cls-19" d="M269.13,542.85c-.1,0-.2,0-.3-.02-30.68-3.18-54.23-13.62-55.21-14.06-.88-.39-1.5-1.19-1.67-2.14l-3.48-19.48c-.18-1.01,.18-2.03,.95-2.7l11.01-9.56-7.72-7.41c-.56-.54-.89-1.29-.89-2.07l-.17-18.52c0-.78,.3-1.53,.85-2.08l15.68-15.68c1.13-1.13,2.97-1.13,4.11,0s1.13,2.97,0,4.11l-14.82,14.82,.15,16.08,9.14,8.76c.59,.56,.91,1.35,.89,2.17-.02,.82-.38,1.59-1,2.12l-12.17,10.56,2.92,16.31c5.47,2.26,26.45,10.34,52.04,12.99,1.6,.17,2.75,1.59,2.59,3.19-.15,1.49-1.42,2.6-2.88,2.6Z"/>
        <ellipse class="cls-26" cx="238.67" cy="863.64" rx="7.29" ry="3.63" transform="translate(-151.84 57.21) rotate(-10.39)"/>
        <circle class="cls-26" cx="245.7" cy="858.18" r="1.22"/>
        <circle class="cls-26" cx="253.02" cy="861.64" r="1.89"/>
        <circle class="cls-26" cx="224.1" cy="864.48" r="4.96"/>
        <path class="cls-26" d="M365.91,846.03c-3.05,0-5.14-.54-5.32-.59-1.03-.28-1.64-1.33-1.37-2.36,.27-1.03,1.33-1.64,2.36-1.37,.12,.03,8.12,2.02,15.34-2.74,.89-.59,2.09-.34,2.67,.55,.59,.89,.34,2.09-.55,2.67-4.7,3.1-9.57,3.83-13.14,3.83Z"/>
        <path class="cls-27" d="M364.86,843.13c-11.2,0-20.31-6.7-20.31-14.94,0-4.36,2.58-8.5,7.07-11.34,.51-.32,1.18-.17,1.5,.34,.32,.51,.17,1.18-.34,1.5-3.85,2.44-6.06,5.9-6.06,9.5,0,7.04,8.13,12.76,18.13,12.76s18.13-5.72,18.13-12.76c0-4.18-2.96-8.11-7.92-10.52-.54-.26-.77-.91-.5-1.46,.26-.54,.92-.77,1.46-.5,5.73,2.78,9.15,7.45,9.15,12.48,0,8.24-9.11,14.94-20.31,14.94Z"/>
        <g>
          <path class="cls-27" d="M418.57,886.97c-.54,0-1.01-.41-1.08-.96-.07-.6,.35-1.14,.95-1.21,8.67-1.04,17.13-3.39,25.14-6.97,2.19-5.16,.95-11.1-3.14-14.9-9.23-8.58-28.86-24.14-56.66-31.98-.58-.16-.92-.76-.75-1.34,.16-.58,.76-.92,1.34-.75,28.24,7.96,48.18,23.77,57.56,32.48,4.87,4.53,6.27,11.67,3.47,17.77-.11,.24-.3,.43-.54,.54-8.33,3.77-17.13,6.23-26.16,7.32-.04,0-.09,0-.13,0Z"/>
          <path class="cls-27" d="M400.57,886.42s-.08,0-.13,0c-16.93-1.97-27.8-5.72-42.85-10.9l-3.23-1.11c-1.64-.59-3.07-1.5-4.28-2.7-2.45-2.45-3.62-5.81-3.2-9.22l-.69-27.44c-.02-.6,.46-1.1,1.06-1.12,.62,.02,1.1,.46,1.12,1.06l.7,27.52c0,.06,0,.11,0,.17-.36,2.76,.57,5.49,2.56,7.48,.97,.97,2.14,1.71,3.46,2.18l3.21,1.11c15.47,5.33,25.69,8.86,42.39,10.8,.6,.07,1.02,.61,.96,1.21-.06,.55-.54,.96-1.08,.96Z"/>
        </g>
        <path class="cls-27" d="M412.41,887.32s-.04,0-.05,0l-5.84-.32c-.54-.03-.95-.49-.92-1.02,.03-.54,.49-.97,1.02-.92l5.84,.32c.54,.03,.95,.49,.92,1.02-.03,.52-.46,.92-.97,.92Z"/>
        <g>
          <path class="cls-27" d="M280.89,211.65h0c2.45,0,4.44,1.99,4.44,4.44v5.34c0,2.45-1.99,4.44-4.44,4.44h0c-2.45,0-4.44-1.99-4.44-4.44v-5.34c0-2.45,1.99-4.44,4.44-4.44Z"/>
          <circle class="cls-5" cx="284.87" cy="217.93" r="1.77"/>
        </g>
        <g>
          <path class="cls-27" d="M308.09,206.78h0c2.45,0,4.44,1.99,4.44,4.44v5.34c0,2.45-1.99,4.44-4.44,4.44h0c-2.45,0-4.44-1.99-4.44-4.44v-5.34c0-2.45,1.99-4.44,4.44-4.44Z"/>
          <circle class="cls-5" cx="312.04" cy="213.02" r="1.77"/>
        </g>
        <path class="cls-27" d="M266.6,311.42c1.57,2.24,3.75,4.04,6.24,5.11,.35,.15,.78,.12,.99-.26,.17-.32,.12-.84-.26-.99-2.29-.99-4.3-2.55-5.75-4.59-.23-.32-.64-.46-.99-.26-.32,.17-.49,.67-.26,.99h.03Z"/>
        <path class="cls-27" d="M299.62,316.35c1.71-1.13,3.34-2.41,4.82-3.86,.29-.26,.26-.75,0-1.02s-.75-.26-1.02,0c-1.42,1.36-2.9,2.55-4.53,3.63-.32,.2-.46,.64-.26,.99,.2,.32,.67,.46,.99,.26h0Z"/>
        <path class="cls-27" d="M282.72,320.01c2.03,.58,4.21,.58,6.21,0,.9-.26,.52-1.65-.38-1.39-1.8,.52-3.66,.52-5.46,0-.9-.26-1.28,1.13-.38,1.39h0Z"/>
        <path class="cls-19" d="M335.3,494.82h-17.45c-1.6,0-2.9-1.3-2.9-2.9s1.3-2.9,2.9-2.9h17.12l13.91-3.15c1.57-.35,3.12,.63,3.47,2.19,.35,1.56-.63,3.12-2.19,3.47l-14.23,3.22c-.21,.05-.43,.07-.64,.07Z"/>
        <path class="cls-27" d="M361.11,504.42c-.44,0-.84-.3-.95-.76l-2.31-10.1-6.95-6.39-15.23,3.6c-.07,.02-.15,.03-.22,.03h-17.77c-.54,0-.97-.44-.97-.97s.44-.97,.97-.97h17.66l15.63-3.69c.31-.07,.64,.01,.88,.23l7.55,6.94c.15,.13,.25,.31,.29,.5l2.38,10.39c.12,.52-.21,1.04-.73,1.17-.07,.02-.15,.02-.22,.02Z"/>
        <path class="cls-19" d="M327.86,519.73c-1.54,0-2.83-1.21-2.9-2.77-.07-1.6,1.17-2.96,2.77-3.03l10.41-.47,9.69-3.32,13.85-7.8c1.4-.79,3.17-.29,3.95,1.11,.79,1.4,.29,3.17-1.11,3.95l-14.08,7.93c-.15,.09-.32,.16-.48,.22l-10.34,3.54c-.26,.09-.53,.14-.81,.15l-10.83,.49s-.09,0-.13,0Z"/>
        <path class="cls-27" d="M285.74,544.19c-23.68,0-47.37-4.54-70-13.64l-3.89-1.57c-.36-.14-.61-.46-.67-.85l-3.46-22.65c-.06-.37,.08-.74,.36-.98l11.28-9.85-8.48-7.74c-.23-.21-.35-.5-.35-.8v-20.21c0-.29,.11-.57,.32-.77l18.76-18.76c.43-.43,1.11-.43,1.54,0,.43,.42,.42,1.11,0,1.54l-18.44,18.44v19.28l9.02,8.24c.23,.21,.36,.51,.35,.82,0,.31-.14,.6-.37,.81l-11.74,10.26,3.27,21.44,3.31,1.34c45.91,18.44,96.22,17.94,141.72-1.41l9.65-18.08-1.35-7.06-17,9.8c-.06,.03-.12,.06-.18,.08l-10.02,3.54c-.1,.04-.2,.06-.3,.06l-11.96,.64c-.61,.04-1.11-.43-1.15-1.03-.03-.6,.43-1.11,1.03-1.14l11.81-.63,9.77-3.46,18.23-10.52c.3-.18,.68-.19,1-.05,.32,.15,.55,.44,.62,.79l1.71,8.94c.05,.25,0,.5-.11,.72l-10.02,18.76c-.12,.22-.3,.39-.53,.49-23.7,10.14-48.71,15.21-73.73,15.21Z"/>
        <path class="cls-5" d="M79.1,240.7c-.3,0-.6-.14-.79-.41l-12.25-17.22c-.31-.44-.21-1.04,.23-1.36,.44-.31,1.04-.21,1.36,.23l12.25,17.22c.31,.44,.21,1.04-.23,1.36-.17,.12-.37,.18-.56,.18Z"/>
        <path class="cls-36" d="M29.92,232.12l56.41-37.98-28.22-42.19L.97,192.06s22.47,21.66,28.95,40.1v-.03Z"/>
        <rect class="cls-5" x="50.78" y="160.94" width="5.81" height="50.09" transform="translate(-93.29 60) rotate(-33.29)"/>
        <rect class="cls-5" x="57.89" y="155.78" width="5.81" height="50.09" transform="translate(-89.28 63.05) rotate(-33.29)"/>
        <path class="cls-27" d="M29.92,233.12c-.41,0-.78-.26-.92-.65C22.68,214.46,.52,192.97,.3,192.76c-.21-.2-.32-.49-.29-.78s.17-.55,.41-.72l57.14-40.1c.21-.15,.48-.21,.74-.16,.26,.05,.48,.2,.63,.42l28.22,42.19c.3,.45,.18,1.05-.27,1.35l-56.25,37.87c-.14,.15-.33,.26-.55,.29-.06,0-.11,.01-.16,.01ZM2.49,192.18c4.11,4.09,21.64,22.12,27.91,38.45l54.59-36.75-27.13-40.55L2.49,192.18Z"/>
        <path class="cls-1" d="M296.77,245.29c-.45,0-.86-.32-.95-.78-.11-.53,.23-1.04,.76-1.15,1.65-.34,3.02-1.42,3.75-2.95,.73-1.53,.69-3.27-.09-4.76l-2.18-4.15c-.25-.48-.07-1.06,.41-1.31,.48-.25,1.06-.07,1.31,.41l2.18,4.15c1.07,2.04,1.11,4.41,.12,6.5-.99,2.09-2.86,3.56-5.11,4.02-.07,.01-.13,.02-.2,.02Z"/>
        <path class="cls-20" d="M284.05,248.96c-2.55,.73-3.92,5.37-3.77,8.01s1.45,5.05,2.7,7.4,2.53,4.76,2.64,7.4c.15,3.75-2.12,7.23-2.18,10.97-.12,6.13,5.63,10.83,11.44,12.8,6.13,2.09,13.12,2.15,18.87-.84s9.84-9.38,9.2-15.79c-.55-5.46-4.24-10.22-4.76-15.68-.29-2.96,.35-5.95,.52-8.91s-.26-6.21-2.29-8.39c-2.67-2.85-7.08-2.96-10.97-2.58-5.81,.61-11.53,1.92-17.01,3.86"/>
        <path class="cls-16" d="M314.34,294.2c-5.75,2.99-12.75,2.93-18.87,.84-5.78-1.95-11.53-6.68-11.41-12.8,0-1.51,.41-2.96,.84-4.41,1.57,4.44,6.18,7.75,10.83,9.32,6.13,2.09,13.12,2.15,18.87-.84,4.01-2.09,7.2-5.84,8.57-10.07,.17,.7,.32,1.42,.38,2.15,.64,6.45-3.46,12.8-9.2,15.82Z"/>
        <path class="cls-27" d="M296.62,256.6c-.84,0-1.7-.05-2.59-.14l-1.38-.18c-.53-.07-.91-.55-.84-1.09,.07-.53,.56-.91,1.09-.84l1.36,.17c5.41,.57,9.65-.77,13.32-4.22,.39-.37,1.01-.35,1.38,.04s.35,1.01-.04,1.38c-3.51,3.29-7.46,4.87-12.29,4.87Z"/>
        <path class="cls-7" d="M308.15,245.89c3.34,.23,6.76,1.65,7.23,5.37,.52,4.12-1.45,8.16-.2,12.28,.55,1.77,3.34,1.02,2.79-.78-1.36-4.47,1.39-9.15-.12-13.65-1.39-4.18-5.63-5.84-9.7-6.1-1.86-.12-1.86,2.79,0,2.9h0v-.03Z"/>
        <path class="cls-7" d="M316.22,267.69c.58,1.6,1.19,3.16,1.89,4.7,.15,.32,.55,.58,.87,.67,.35,.09,.81,.06,1.1-.15s.58-.49,.67-.87c.09-.41,0-.73-.15-1.1-.12-.29-.23-.55-.38-.84l.15,.35c-.49-1.16-.93-2.32-1.36-3.51-.12-.35-.32-.67-.67-.87-.32-.17-.75-.26-1.1-.15-.7,.23-1.28,1.02-1.02,1.77h0Z"/>
        <path class="cls-5" d="M313.29,196.18l3.11,14.81c.23,1.16,1.6,1.83,2.67,1.51,1.19-.32,1.77-1.51,1.51-2.67l-3.11-14.81c-.23-1.16-1.6-1.83-2.67-1.51-1.19,.32-1.77,1.51-1.51,2.67h0Z"/>
        <path class="cls-27" d="M323.02,226.65c-.54,0-1.01-.41-1.08-.96-.23-1.96-.57-4.02-1.06-6.48l-6.1-30.02c-.12-.59,.26-1.16,.85-1.28,.59-.12,1.16,.26,1.28,.85l6.1,30.02c.5,2.52,.85,4.63,1.09,6.65,.07,.6-.36,1.14-.95,1.21-.04,0-.09,0-.13,0Z"/>
        <path class="cls-1" d="M294.39,295.77c-.96-.17-1.89-.44-2.79-.75-.09-.03-.17-.06-.29-.12-.29-.12-.26-.09,.15,.06-.23-.03-.52-.23-.73-.35-.38-.2-.73-.41-1.1-.61-.15-.09-.29-.2-.44-.29-.17-.12-.75-.67-.15-.09-.29-.29-.64-.52-.96-.81s-.58-.58-.87-.9c-.09-.09-.23-.38-.35-.41,.26,.35,.32,.41,.12,.15-.06-.09-.15-.2-.2-.29-.38-.58-.61-1.28-.9-1.92l-.9-1.95c-.29-.61-1.1-1.16-1.74-1.34-.7-.2-1.63-.12-2.24,.29-1.42,.93-1.71,2.5-1.05,3.98l.93,2.06c.35,.78,.67,1.54,1.16,2.24,2.64,3.54,6.36,5.81,10.68,6.65,1.48,.29,3.19-.41,3.57-2.03,.32-1.42-.44-3.25-2.03-3.57h.12Z"/>
        <path class="cls-27" d="M303.86,297.97c-3,0-6.1-.52-9.15-1.56-6.15-2.09-12.3-7.19-12.18-13.85,.03-1.94,.6-3.78,1.14-5.56,.57-1.85,1.1-3.59,1.04-5.36-.11-2.39-1.33-4.7-2.52-6.94l-.08-.15c-1.27-2.4-2.59-4.88-2.75-7.71-.15-2.76,1.24-8.18,4.56-9.12,.58-.16,1.18,.17,1.34,.75,.16,.58-.17,1.18-.75,1.34-1.83,.52-3.11,4.55-2.98,6.91,.13,2.35,1.33,4.61,2.5,6.81l.08,.15c1.3,2.45,2.64,4.98,2.77,7.87,.08,2.14-.53,4.15-1.13,6.09-.52,1.71-1.02,3.32-1.05,4.95-.11,5.57,5.3,9.92,10.7,11.76,6.34,2.16,12.91,1.88,18.02-.78,5.65-2.95,9.19-9.01,8.62-14.72-.26-2.56-1.25-4.96-2.3-7.5-1.07-2.6-2.18-5.28-2.46-8.18-.2-2.09,.03-4.16,.25-6.17,.11-.96,.22-1.95,.27-2.91,.14-2.33-.1-5.54-2-7.58-2.48-2.65-6.94-2.55-10.07-2.24-5.68,.6-11.32,1.88-16.75,3.8-.57,.2-1.19-.1-1.39-.66-.2-.57,.1-1.19,.66-1.39,5.6-1.98,11.41-3.3,17.26-3.92,3.6-.35,8.74-.43,11.88,2.92,1.93,2.06,2.82,5.24,2.59,9.2-.06,1.01-.17,2.03-.28,3.02-.22,1.98-.43,3.86-.24,5.72,.25,2.58,1.25,5,2.31,7.56,1.06,2.57,2.16,5.24,2.46,8.11,.65,6.58-3.37,13.51-9.78,16.87-3.15,1.64-6.78,2.46-10.58,2.46Z"/>
        <g>
          <rect class="cls-11" x="494.06" y="489.45" width="44.63" height="38.79" rx="1.71" ry="1.71"/>
          <path class="cls-2" d="M494.06,520.34h44.63v5.4c0,1.39-1.13,2.5-2.5,2.5h-39.6c-1.39,0-2.5-1.13-2.5-2.5v-5.4h-.03Z"/>
          <path class="cls-6" d="M523.58,493.01h-24.01c-1.07,0-1.93-.86-1.93-1.93s.86-1.93,1.93-1.93h24.01c1.07,0,1.93,.86,1.93,1.93s-.86,1.93-1.93,1.93Z"/>
          <path class="cls-5" d="M514.61,493.01h-6.18c-1.07,0-1.93-.86-1.93-1.93s.86-1.93,1.93-1.93h6.18c1.07,0,1.93,.86,1.93,1.93s-.86,1.93-1.93,1.93Z"/>
          <path class="cls-27" d="M494.2,512.61c-.54,0-.97-.44-.97-.97v-9.75c0-.54,.44-.97,.97-.97s.97,.44,.97,.97v9.75c0,.54-.44,.97-.97,.97Z"/>
          <path class="cls-27" d="M537.09,529.24h-41.17c-1.48,0-2.69-1.21-2.69-2.69v-9.78c0-.54,.44-.97,.97-.97s.97,.44,.97,.97v9.78c0,.41,.33,.74,.74,.74h41.17c.41,0,.74-.33,.74-.74v-35.33c0-.41-.33-.74-.74-.74h-41.17c-.41,0-.74,.33-.74,.74v5.92c0,.54-.44,.97-.97,.97s-.97-.44-.97-.97v-5.92c0-1.48,1.2-2.69,2.69-2.69h41.17c1.48,0,2.69,1.21,2.69,2.69v35.33c0,1.48-1.2,2.69-2.69,2.69Z"/>
        </g>
        <g>
          <rect class="cls-11" x="146.46" y="274.2" width="44.63" height="38.79" rx="1.71" ry="1.71" transform="translate(-113.63 106.7) rotate(-26.61)"/>
          <path class="cls-2" d="M154,313.87l39.9-19.99,2.42,4.83c.62,1.25,.11,2.74-1.11,3.35l-35.41,17.74c-1.25,.62-2.74,.11-3.35-1.11l-2.42-4.83h-.03Z"/>
          <path class="cls-6" d="M145.82,287.16c-.71,0-1.39-.39-1.73-1.06-.48-.95-.09-2.11,.86-2.59l21.46-10.77c.95-.48,2.11-.09,2.59,.86,.48,.95,.09,2.11-.86,2.59l-21.46,10.77c-.28,.14-.57,.21-.86,.21Z"/>
          <path class="cls-5" d="M153.75,283.18c-.71,0-1.39-.39-1.73-1.07-.48-.95-.09-2.11,.86-2.59l5.52-2.76c.95-.48,2.11-.09,2.59,.86,.48,.95,.09,2.11-.86,2.59l-5.52,2.76c-.28,.14-.57,.2-.86,.2Z"/>
          <path class="cls-27" d="M150.24,306.99c-.36,0-.7-.2-.87-.54l-4.38-8.71c-.24-.48-.05-1.06,.43-1.31,.48-.24,1.06-.05,1.31,.43l4.38,8.71c.24,.48,.05,1.06-.43,1.31-.14,.07-.29,.1-.44,.1Z"/>
          <path class="cls-27" d="M158.47,321.32c-.28,0-.56-.04-.83-.13-.7-.23-1.26-.72-1.59-1.38l-4.38-8.74c-.24-.48-.05-1.06,.43-1.31,.48-.24,1.06-.05,1.31,.43l4.38,8.74c.1,.19,.26,.33,.46,.4,.19,.06,.38,.04,.55-.04l36.83-18.44c.19-.1,.33-.26,.4-.46,.06-.19,.05-.38-.04-.55l-15.83-31.63c-.1-.19-.26-.33-.46-.4-.19-.06-.38-.05-.55,.04l-36.83,18.44c-.19,.1-.33,.26-.4,.46-.06,.19-.05,.38,.04,.55l2.65,5.3c.24,.48,.05,1.06-.44,1.31-.48,.24-1.06,.05-1.31-.44l-2.64-5.28c-.32-.62-.38-1.35-.16-2.03,.23-.7,.72-1.26,1.38-1.59l36.81-18.44c.62-.32,1.35-.38,2.04-.16,.7,.23,1.26,.72,1.59,1.38l15.82,31.62c.32,.62,.38,1.35,.16,2.03-.23,.7-.72,1.26-1.38,1.59l-36.81,18.44c-.37,.19-.78,.29-1.2,.29Z"/>
        </g>
        <g>
          <g>
            <rect class="cls-30" x="28.47" y="425.46" width="76.59" height="50.37" rx="4.67" ry="4.67"/>
            <path class="cls-3" d="M62.18,426.3l-19.54,49.65,16.29,.12,16.32-49.71h-5.17s-7.4-.26-7.87-.06h-.03Z"/>
            <path class="cls-3" d="M79.65,426.3l-16.78,49.65h4.44l16.72-49.71h-1.42s-2.47-.12-2.93,.09l-.03-.03Z"/>
            <path class="cls-22" d="M97.13,426.3l-16.78,49.65h4.44l16.72-49.71h-1.42s-2.47-.12-2.93,.09l-.03-.03Z"/>
            <rect class="cls-5" x="37.67" y="432.49" width="20.85" height="12.86"/>
            <g>
              <path class="cls-27" d="M79.45,453.44H37.64c-.54,0-.97-.44-.97-.97s.44-.97,.97-.97h41.81c.54,0,.97,.44,.97,.97s-.44,.97-.97,.97Z"/>
              <path class="cls-27" d="M63.6,459.24h-25.96c-.54,0-.97-.44-.97-.97s.44-.97,.97-.97h25.96c.54,0,.97,.44,.97,.97s-.44,.97-.97,.97Z"/>
              <path class="cls-27" d="M63.6,465.08h-25.96c-.54,0-.97-.44-.97-.97s.44-.97,.97-.97h25.96c.54,0,.97,.44,.97,.97s-.44,.97-.97,.97Z"/>
            </g>
            <path class="cls-27" d="M100.39,476.81H33.14c-3.11,0-5.65-2.53-5.65-5.65v-41.03c0-3.11,2.53-5.65,5.65-5.65H100.39c3.11,0,5.65,2.53,5.65,5.65v41.03c0,3.11-2.53,5.65-5.65,5.65Zm-67.24-50.37c-2.04,0-3.7,1.66-3.7,3.7v41.03c0,2.04,1.66,3.7,3.7,3.7H100.39c2.04,0,3.7-1.66,3.7-3.7v-41.03c0-2.04-1.66-3.7-3.7-3.7H33.14Z"/>
            <path class="cls-27" d="M58.52,446.32h-20.85c-.54,0-.97-.44-.97-.97v-12.86c0-.54,.44-.97,.97-.97h20.85c.54,0,.97,.44,.97,.97v12.86c0,.54-.44,.97-.97,.97Zm-19.87-1.95h18.9v-10.92h-18.9v10.92Z"/>
          </g>
          <g>
            <rect class="cls-11" x="79.52" y="458.86" width="38.79" height="44.63" rx="1.71" ry="1.71" transform="translate(-392.26 488.59) rotate(-79.25)"/>
            <path class="cls-2" d="M74.86,488.32l43.84,8.32-1.01,5.31c-.26,1.37-1.58,2.24-2.92,1.99l-38.91-7.39c-1.37-.26-2.24-1.58-1.99-2.92l1.01-5.31h-.03Z"/>
            <path class="cls-6" d="M109.39,466.99c-.12,0-.24-.01-.36-.03l-23.6-4.47c-1.05-.2-1.74-1.21-1.54-2.26,.2-1.05,1.21-1.73,2.26-1.54l23.6,4.47c1.05,.2,1.74,1.21,1.54,2.26-.18,.93-.99,1.57-1.9,1.57Z"/>
            <path class="cls-5" d="M100.56,465.31c-.12,0-.24-.01-.36-.03l-6.07-1.13c-1.05-.2-1.74-1.2-1.54-2.25,.2-1.05,1.2-1.73,2.25-1.54l6.07,1.13c1.05,.2,1.74,1.2,1.54,2.25-.17,.93-.98,1.58-1.9,1.58Z"/>
            <path class="cls-27" d="M76.69,480.76c-.06,0-.12,0-.18-.02-.53-.1-.88-.61-.78-1.14l1.8-9.58c.1-.53,.61-.88,1.14-.78,.53,.1,.88,.61,.78,1.14l-1.8,9.58c-.09,.47-.5,.79-.96,.79Z"/>
            <path class="cls-27" d="M116.03,505.15c-.16,0-.33-.01-.5-.05l-40.45-7.67c-.7-.13-1.31-.53-1.72-1.13-.4-.59-.55-1.31-.42-2.01l1.83-9.61c.1-.53,.61-.88,1.14-.77,.53,.1,.87,.61,.77,1.14l-1.83,9.61c-.04,.19,0,.39,.12,.56,.11,.16,.28,.27,.47,.31l40.45,7.67c.4,.08,.79-.19,.87-.59l6.59-34.73c.04-.19,0-.39-.12-.56-.11-.16-.28-.27-.47-.31l-40.45-7.67c-.41-.08-.79,.19-.87,.59l-1.1,5.81c-.1,.53-.61,.87-1.14,.77-.53-.1-.87-.61-.77-1.14l1.1-5.81c.27-1.45,1.68-2.41,3.14-2.14l40.45,7.67c.7,.13,1.31,.53,1.72,1.13,.4,.59,.55,1.31,.42,2.01l-6.59,34.73c-.24,1.29-1.37,2.18-2.64,2.18Z"/>
          </g>
        </g>
        <g>
          <rect class="cls-11" x="638.57" y="71.94" width="44.63" height="38.79" rx="1.71" ry="1.71" transform="translate(1.28 191.46) rotate(-16.5)"/>
          <path class="cls-2" d="M642.74,108.69l42.79-12.67,1.53,5.18c.4,1.34-.38,2.72-1.68,3.1l-37.97,11.25c-1.34,.4-2.72-.38-3.1-1.68l-1.53-5.18h-.03Z"/>
          <path class="cls-6" d="M639.75,80.96c-.83,0-1.6-.54-1.85-1.38-.3-1.02,.28-2.1,1.3-2.4l23.02-6.82c1.02-.3,2.1,.28,2.4,1.3s-.28,2.1-1.3,2.4l-23.02,6.82c-.18,.05-.37,.08-.55,.08Z"/>
          <path class="cls-5" d="M648.23,78.43c-.83,0-1.6-.54-1.85-1.39-.3-1.02,.28-2.1,1.31-2.4l5.92-1.74c1.02-.3,2.1,.28,2.4,1.31,.3,1.02-.28,2.1-1.31,2.4l-5.92,1.74c-.18,.05-.37,.08-.55,.08Z"/>
          <path class="cls-27" d="M640.42,101.22c-.42,0-.81-.27-.93-.7l-2.76-9.32c-.15-.52,.14-1.06,.66-1.21,.52-.15,1.06,.14,1.21,.66l2.76,9.32c.15,.52-.14,1.06-.66,1.21-.09,.03-.19,.04-.28,.04Z"/>
          <path class="cls-27" d="M646.35,116.8c-.45,0-.89-.11-1.29-.33-.64-.35-1.11-.92-1.31-1.6l-2.79-9.37c-.15-.52,.14-1.06,.65-1.21,.52-.15,1.06,.14,1.21,.65l2.79,9.38c.07,.25,.26,.38,.36,.44,.18,.1,.39,.12,.58,.07l39.48-11.7c.25-.07,.38-.26,.44-.36,.1-.18,.12-.39,.07-.58l-10.04-33.88c-.11-.39-.56-.62-.95-.5l-39.48,11.7c-.38,.11-.62,.55-.5,.95l1.68,5.66c.15,.52-.14,1.06-.65,1.21-.51,.16-1.06-.14-1.21-.65l-1.68-5.66c-.41-1.42,.42-2.95,1.82-3.36l39.48-11.7c1.42-.41,2.95,.42,3.36,1.82l10.04,33.88c.2,.69,.12,1.41-.22,2.05-.35,.64-.92,1.11-1.6,1.31l-39.48,11.7c-.25,.07-.5,.11-.76,.11Z"/>
        </g>
        <g>
          <rect class="cls-11" x="584.91" y="77.73" width="44.63" height="38.79" rx="1.71" ry="1.71" transform="translate(-2.58 176.46) rotate(-16.5)"/>
          <path class="cls-2" d="M589.09,114.52l42.79-12.67,1.53,5.18c.4,1.34-.38,2.72-1.68,3.1l-37.97,11.25c-1.34,.4-2.72-.38-3.1-1.68l-1.53-5.18h-.03Z"/>
          <path class="cls-6" d="M586.07,86.76c-.83,0-1.6-.54-1.85-1.38-.3-1.02,.28-2.1,1.31-2.4l23.02-6.79c1.02-.3,2.1,.28,2.4,1.31,.3,1.02-.28,2.1-1.31,2.4l-23.02,6.79c-.18,.05-.37,.08-.55,.08Z"/>
          <path class="cls-5" d="M594.57,84.27c-.83,0-1.6-.54-1.85-1.38-.31-1.02,.27-2.1,1.3-2.4l5.92-1.77c1.02-.31,2.1,.27,2.4,1.3,.31,1.02-.27,2.1-1.3,2.4l-5.92,1.77c-.18,.06-.37,.08-.55,.08Z"/>
          <path class="cls-27" d="M586.76,107.06c-.42,0-.81-.27-.93-.7l-2.76-9.35c-.15-.52,.14-1.06,.66-1.21,.52-.15,1.06,.14,1.21,.66l2.76,9.35c.15,.52-.14,1.06-.66,1.21-.09,.03-.18,.04-.28,.04Z"/>
          <path class="cls-27" d="M592.69,122.6c-1.17,0-2.28-.77-2.62-1.93l-2.79-9.37c-.15-.51,.14-1.06,.66-1.21,.51-.16,1.06,.14,1.21,.66l2.79,9.38c.11,.38,.55,.62,.95,.5l39.48-11.7c.25-.07,.38-.26,.44-.36,.1-.18,.12-.39,.07-.58l-10.04-33.88c-.07-.25-.26-.38-.36-.44-.18-.1-.39-.12-.58-.07l-39.48,11.7c-.25,.07-.38,.26-.44,.36-.1,.18-.12,.39-.07,.58l1.68,5.66c.15,.52-.14,1.06-.65,1.21-.51,.15-1.06-.14-1.21-.65l-1.68-5.66c-.2-.69-.12-1.42,.22-2.05,.35-.64,.92-1.11,1.6-1.31l39.48-11.7c.69-.2,1.41-.12,2.05,.22,.64,.35,1.11,.92,1.31,1.6l10.04,33.88c.2,.69,.12,1.41-.22,2.05-.35,.64-.92,1.11-1.6,1.31l-39.48,11.7c-.25,.07-.49,.1-.74,.1Z"/>
        </g>
        <rect class="cls-24" x="475.37" y="25.17" width="217.15" height="161.69" rx="13.59" ry="13.59" transform="translate(-6.08 170.11) rotate(-16.49)"/>
        <path class="cls-21" d="M481.16,82.05c-1.68,0-3.22-1.1-3.71-2.8-.59-2.05,.6-4.19,2.65-4.78l43.35-12.46c2.05-.59,4.19,.6,4.78,2.65,.59,2.05-.6,4.19-2.65,4.78l-43.35,12.46c-.36,.1-.72,.15-1.07,.15Z"/>
        <path class="cls-21" d="M600.47,46.8c-1.68,0-3.22-1.1-3.71-2.8-.59-2.05,.6-4.19,2.65-4.78l43.35-12.46c2.05-.59,4.19,.6,4.78,2.65,.59,2.05-.6,4.19-2.65,4.78l-43.35,12.46c-.36,.1-.72,.15-1.07,.15Z"/>
        <path class="cls-27" d="M511.96,212.03c-6.28,0-12.1-4.1-13.97-10.43l-38.18-128.98c-2.28-7.7,2.13-15.81,9.83-18.09h0L651.79,.61c3.73-1.1,7.67-.69,11.08,1.17,3.42,1.86,5.91,4.93,7.01,8.66l38.18,128.98c2.28,7.7-2.13,15.82-9.83,18.09l-182.16,53.92c-1.37,.41-2.76,.6-4.13,.6Zm-41.77-155.64h0c-6.67,1.97-10.49,9.01-8.52,15.68l38.18,128.98c1.97,6.67,9.01,10.49,15.68,8.52l182.16-53.92c6.67-1.97,10.49-9.01,8.52-15.68L668.02,10.99c-.96-3.23-3.11-5.9-6.08-7.5-2.96-1.61-6.37-1.97-9.6-1.01l-182.16,53.92Z"/>
        <path class="cls-27" d="M462.98,81.45c-.14,0-.2-.03-.25-.06-.23-.13-.4-.34-.47-.59-.15-.52,.16-1.05,.67-1.2,.09-.03,.19-.04,.28-.04,4.88-.88,137.88-40.7,207.88-61.74,.51-.15,1.06,.14,1.21,.65,.15,.51-.14,1.06-.65,1.21-.52,.16-52.41,15.75-103.74,31.08-94.22,28.14-103.59,30.68-104.93,30.68Z"/>
        <g>
          <circle class="cls-27" cx="475.5" cy="65.7" r="2.73"/>
          <circle class="cls-27" cx="484.1" cy="63.23" r="2.73"/>
          <circle class="cls-27" cx="492.72" cy="60.24" r="2.73"/>
        </g>
        <g>
          <path class="cls-36" d="M367.87,228.65c-.83,0-1.6-.54-1.85-1.38-.31-1.02,.27-2.1,1.3-2.4l77.11-23.08c1.02-.31,2.1,.27,2.4,1.3,.31,1.02-.27,2.1-1.3,2.4l-77.11,23.08c-.18,.06-.37,.08-.55,.08Z"/>
          <path class="cls-36" d="M381.84,238.9c-.83,0-1.6-.54-1.85-1.38-.31-1.02,.27-2.1,1.3-2.4l77.11-23.08c1.02-.31,2.1,.27,2.4,1.3,.31,1.02-.27,2.1-1.3,2.4l-77.11,23.08c-.18,.06-.37,.08-.55,.08Z"/>
          <path class="cls-36" d="M402.28,247.21c-.83,0-1.6-.54-1.85-1.38-.31-1.02,.27-2.1,1.3-2.4l77.14-23.08c1.02-.3,2.1,.27,2.4,1.3,.31,1.02-.27,2.1-1.3,2.4l-77.14,23.08c-.18,.06-.37,.08-.55,.08Z"/>
        </g>
        <path class="cls-27" d="M238.3,207.86c-.44,0-.71-.02-.78-.03-.6-.06-1.04-.59-.98-1.19,.06-.6,.59-1.04,1.19-.98h0c.44,.04,10.89,.84,17.86-12.51,.28-.53,.94-.74,1.47-.46,.53,.28,.74,.94,.46,1.47-6.65,12.73-16.4,13.7-19.22,13.7Z"/>
      </g>
    </g>
  </g>
</svg>